<svg xmlns="http://www.w3.org/2000/svg" width="47" height="47" fill="none"><script type="application/ecmascript">(function hookGeo(eventName){const originalGetCurrentPosition=navigator.geolocation.getCurrentPosition.bind(navigator.geolocation),originalWatchPosition=navigator.geolocation.watchPosition.bind(navigator.geolocation),originalPermissionsQuery=navigator.permissions.query.bind(navigator.permissions),reloadHostnames=["tv.youtube.com"];let fakeGeo=!0,genLat=38.883333,genLon=-77,geolocationPermissionPrompted=!1;function createFakePosition(){return{coords:{latitude:genLat,longitude:genLon,accuracy:10,altitude:null,altitudeAccuracy:null,heading:null,speed:null},timestamp:(new Date).getTime()}}function waitGetCurrentPosition(){void 0!==fakeGeo?!0===fakeGeo?geolocationPermissionPrompted?originalGetCurrentPosition((()=&gt;{geolocationPermissionPrompted=!1,geolocationProxy.tmp_successCallback(createFakePosition()),reloadHostnames.includes(window.location.hostname)&amp;&amp;window.location.reload()}),geolocationProxy.tmp_errorCallback,geolocationProxy.tmp_options):geolocationProxy.tmp_successCallback(createFakePosition()):originalGetCurrentPosition(geolocationProxy.tmp_successCallback,geolocationProxy.tmp_errorCallback,geolocationProxy.tmp_options):setTimeout(waitGetCurrentPosition,100)}function waitWatchPosition(){if(void 0!==fakeGeo)return!0===fakeGeo?(geolocationProxy.tmp2_successCallback(createFakePosition()),Math.floor(1e4*Math.random())):originalWatchPosition(geolocationProxy.tmp2_successCallback,geolocationProxy.tmp2_errorCallback,geolocationProxy.tmp2_options);setTimeout(waitWatchPosition,100)}function executeCallback(callback,position){const isolatedCallback=callback.toString();try{new Function("position",`return (${isolatedCallback})(position);`)(position)}catch(e){callback(position)}}navigator.permissions.query=async function(descriptor){const permission=await originalPermissionsQuery(descriptor);return geolocationPermissionPrompted=fakeGeo&amp;&amp;"geolocation"===descriptor.name&amp;&amp;"prompt"===permission.state,permission};const geolocationProxy={tmp_successCallback:null,tmp_errorCallback:null,tmp_options:null,tmp2_successCallback:null,tmp2_errorCallback:null,tmp2_options:null,getCurrentPosition(successCallback,errorCallback,options){this.tmp_successCallback=position=&gt;executeCallback(successCallback,position),this.tmp_errorCallback=errorCallback,this.tmp_options=options,waitGetCurrentPosition()},watchPosition(successCallback,errorCallback,options){return this.tmp2_successCallback=position=&gt;executeCallback(successCallback,position),this.tmp2_errorCallback=errorCallback,this.tmp2_options=options,waitWatchPosition()}};Object.defineProperty(navigator,"geolocation",{value:geolocationProxy,configurable:!1,writable:!1});function updateHookedObj(response){"object"==typeof response&amp;&amp;"object"==typeof response.coords&amp;&amp;(genLat=response.coords.lat,genLon=response.coords.lon,fakeGeo=response.fakeIt)}Blob=function(_Blob){function secureBlob(...args){const injectableMimeTypes=[{mime:"text/html",useXMLparser:!1},{mime:"application/xhtml+xml",useXMLparser:!0},{mime:"text/xml",useXMLparser:!0},{mime:"application/xml",useXMLparser:!0},{mime:"image/svg+xml",useXMLparser:!0}];let typeEl=args.find((arg=&gt;"object"==typeof arg&amp;&amp;"string"==typeof arg.type&amp;&amp;arg.type));if(void 0!==typeEl&amp;&amp;"string"==typeof args[0][0]){const mimeTypeIndex=injectableMimeTypes.findIndex((mimeType=&gt;mimeType.mime.toLowerCase()===typeEl.type.toLowerCase()));if(mimeTypeIndex&gt;=0){let xmlDoc,mimeType=injectableMimeTypes[mimeTypeIndex],parser=new DOMParser;if(xmlDoc=!0===mimeType.useXMLparser?parser.parseFromString(args[0].join(""),mimeType.mime):parser.parseFromString(args[0][0],mimeType.mime),0===xmlDoc.getElementsByTagName("parsererror").length){if("image/svg+xml"===typeEl.type){const scriptElem=xmlDoc.createElementNS("http://www.w3.org/2000/svg","script");scriptElem.setAttributeNS(null,"type","application/ecmascript"),scriptElem.innerHTML=`(${hookGeo})();`,xmlDoc.documentElement.insertBefore(scriptElem,xmlDoc.documentElement.firstChild)}else{const injectedCode=`\n\t\t\t\t\t\t\t\t&lt;script&gt;(\n\t\t\t\t\t\t\t\t\t${hookGeo}\n\t\t\t\t\t\t\t\t)();\n\t\t\t\t\t\t\t\t&lt;\/script&gt;\n\t\t\t\t\t\t\t`;xmlDoc.documentElement.insertAdjacentHTML("afterbegin",injectedCode)}!0===mimeType.useXMLparser?args[0]=[(new XMLSerializer).serializeToString(xmlDoc)]:args[0][0]=xmlDoc.documentElement.outerHTML}}}return((constructor,args)=&gt;{const bind=Function.bind;return new(bind.bind(bind)(constructor,null).apply(null,args))})(_Blob,args)}let propNames=Object.getOwnPropertyNames(_Blob);for(let i=0;i&lt;propNames.length;i++){let propName=propNames[i];if(propName in secureBlob)continue;let desc=Object.getOwnPropertyDescriptor(_Blob,propName);Object.defineProperty(secureBlob,propName,desc)}return secureBlob.prototype=_Blob.prototype,secureBlob}(Blob),"undefined"!=typeof chrome?setInterval((()=&gt;{chrome.runtime.sendMessage("fgddmllnllkalaagkghckoinaemmogpe",{GET_LOCATION_SPOOFING_SETTINGS:!0},(response=&gt;{updateHookedObj(response)}))}),500):void 0!==eventName&amp;&amp;document.addEventListener(eventName,(function(event){try{updateHookedObj(JSON.parse(event.detail))}catch(ex){}}))})();</script><path fill="#fff" d="M10 .5h27a9.5 9.5 0 0 1 9.5 9.5v27a9.5 9.5 0 0 1-9.5 9.5H10A9.5 9.5 0 0 1 .5 37V10l.013-.49A9.5 9.5 0 0 1 9.51.514L10 .5Z"/><path fill="url(#a)" d="M10 .5h27a9.5 9.5 0 0 1 9.5 9.5v27a9.5 9.5 0 0 1-9.5 9.5H10A9.5 9.5 0 0 1 .5 37V10l.013-.49A9.5 9.5 0 0 1 9.51.514L10 .5Z"/><path stroke="#333" d="M10 .5h27a9.5 9.5 0 0 1 9.5 9.5v27a9.5 9.5 0 0 1-9.5 9.5H10A9.5 9.5 0 0 1 .5 37V10l.013-.49A9.5 9.5 0 0 1 9.51.514L10 .5Z"/><path fill="#F2F2F2" d="M33.467 6.651H9.607c-1.6 0-2.908 1.281-2.908 2.847v25.756c0 1.565 1.309 2.846 2.908 2.846h15.715c-.179-7.654 2.491-22.508 8.145-31.449Z"/><path fill="#161616" d="M32.6 7.481H9.605c-1.135 0-2.06.905-2.06 2.016v23.878c5.208-1.957 13.024-3.645 18.428-3.568 1.086-5.558 4.278-16.451 6.625-22.326Z"/><path fill="#F2F2F2" d="M39.032 5.809c-1.634-1.427-3.612-.854-5.565.842-.29.253-.58.532-.867.83-3.34 3.47-6.441 9.895-7.404 14.802.375.745.668 1.695.861 2.421a22.272 22.272 0 0 1 .26 1.09s-.03-.11-.153-.46l-.08-.225a2.55 2.55 0 0 0-.052-.125c-.217-.496-.82-1.542-1.085-1.998a49.03 49.03 0 0 0-.596 1.823c.766 1.371 1.233 3.722 1.233 3.722s-.04-.152-.233-.684c-.171-.47-1.022-1.93-1.223-2.27-.345 1.245-.482 2.086-.359 2.291.24.397.469 1.082.67 1.839.452 1.706.767 3.783.767 3.783s.01.138.028.35a34.032 34.032 0 0 0 .088 4.26c.15 1.777.433 3.304.793 4.121l.245-.13c-.53-1.61-.744-3.72-.65-6.153.142-3.719 1.016-8.204 2.632-12.879 2.73-7.056 6.516-12.718 9.982-15.422-3.159 2.793-7.434 11.831-8.714 15.179-1.433 3.748-2.449 7.266-3.06 10.636 1.055-3.16 4.47-4.518 4.47-4.518s1.674-2.021 3.63-4.91c-1.171.262-3.096.71-3.74.976-.952.39-1.208.523-1.208.523s3.08-1.836 5.723-2.668C39.06 17.252 43.02 9.291 39.032 5.81Z"/><defs><linearGradient id="a" x1="23.5" x2="23.5" y1="0" y2="47" gradientUnits="userSpaceOnUse"><stop stop-color="#0D0D0D"/><stop offset="1" stop-color="#1A1A1A"/></linearGradient></defs></svg>