<?xml version="1.0" encoding="UTF-8"?>
<svg id="Ebene_1" xmlns="http://www.w3.org/2000/svg" xmlns:xlink="http://www.w3.org/1999/xlink" version="1.1" viewBox="0 0 69 69">
  <!-- Generator: Adobe Illustrator 29.5.1, SVG Export Plug-In . SVG Version: 2.1.0 Build 141)  -->
  <defs>
    <style>
      .st0 {
        fill: url(#Unbenannter_Verlauf_3);
      }

      .st1 {
        fill: #fff;
      }

      .st2 {
        stroke: #2eafff;
        stroke-linecap: square;
        stroke-miterlimit: 10;
        stroke-width: 3.9px;
      }

      .st2, .st3 {
        fill: none;
      }

      .st3 {
        stroke: #333;
        stroke-width: 1.5px;
      }

      .st4 {
        fill: #2a2a2a;
      }
    </style>
    <linearGradient id="Unbenannter_Verlauf_3" data-name="Unbenannter Verlauf 3" x1="34.8" y1="70.1" x2="34.8" y2="1.8" gradientTransform="translate(0 70.6) scale(1 -1)" gradientUnits="userSpaceOnUse">
      <stop offset="0" stop-color="#0d0d0d"/>
      <stop offset="1" stop-color="#1a1a1a"/>
    </linearGradient>
  </defs>
  <path class="st1" d="M15.2,1.2h39.2c7.6,0,13.8,6.2,13.8,13.8v39.2c0,7.6-6.2,13.8-13.8,13.8H15.2c-7.6,0-13.8-6.2-13.8-13.8V15C1.4,7.5,7.4,1.4,14.9,1.2h.4Z"/>
  <path class="st0" d="M15.2,1.2h39.2c7.6,0,13.8,6.2,13.8,13.8v39.2c0,7.6-6.2,13.8-13.8,13.8H15.2c-7.6,0-13.8-6.2-13.8-13.8V15C1.4,7.5,7.4,1.4,14.9,1.2h.4Z"/>
  <path class="st3" d="M15.2,1.2h39.2c7.6,0,13.8,6.2,13.8,13.8v39.2c0,7.6-6.2,13.8-13.8,13.8H15.2c-7.6,0-13.8-6.2-13.8-13.8V15C1.4,7.5,7.4,1.4,14.9,1.2h.4Z"/>
  <path class="st4" d="M60.3,48.8v-28.3l-24.7-14.2-24.7,14.2v28.3l24.7,14.2,24.7-14.2Z"/>
  <path class="st2" d="M31.1,41.4c5.6,0,10.1-4.5,10.1-10.1s-4.5-10.1-10.1-10.1-10.1,4.5-10.1,10.1,4.5,10.1,10.1,10.1Z"/>
  <path class="st2" d="M46.5,35.4h1.6c2.3,0,4.3-1.9,4.3-4.3s-1.9-4.2-4.3-4.2h-1.6"/>
  <path class="st2" d="M17.7,43.4c5,1.3,6.3,4.8,13.4,4.8s8.7-5.2,17.3-5.2,3.1.2,4.2.6"/>
</svg>