<svg width="1200" height="515" viewBox="0 0 1200 515" fill="none" xmlns="http://www.w3.org/2000/svg">
<g clip-path="url(#clip0_16353_32081)">
<rect width="1200" height="515" fill="url(#paint0_linear_16353_32081)"/>
<g clip-path="url(#clip1_16353_32081)">
<rect width="1200" height="515" fill="url(#paint1_linear_16353_32081)"/>
<path d="M70.5037 552C70.5037 552.826 71.1736 553.496 72 553.496C72.8264 553.496 73.4963 552.826 73.4963 552L72 552L70.5037 552ZM73.058 215.942C72.4737 215.358 71.5263 215.358 70.9419 215.942L61.4195 225.464C60.8352 226.049 60.8352 226.996 61.4195 227.58C62.0039 228.165 62.9513 228.165 63.5356 227.58L72 219.116L80.4643 227.58C81.0487 228.165 81.9961 228.165 82.5804 227.58C83.1647 226.996 83.1647 226.049 82.5804 225.464L73.058 215.942ZM72 552L73.4963 552L73.4963 217L72 217L70.5037 217L70.5037 552L72 552Z" fill="#2EAFFF"/>
<path d="M465.504 580.5C465.504 581.326 466.174 581.996 467 581.996C467.826 581.996 468.496 581.326 468.496 580.5L467 580.5L465.504 580.5ZM468.059 403.942C467.475 403.358 466.527 403.358 465.943 403.942L456.421 413.464C455.836 414.049 455.836 414.996 456.421 415.58C457.005 416.165 457.952 416.165 458.537 415.58L467.001 407.116L475.465 415.581C476.05 416.165 476.997 416.165 477.581 415.581C478.166 414.996 478.166 414.049 477.581 413.464L468.059 403.942ZM467 580.5L468.496 580.5L468.497 405L467.001 405L465.505 405L465.504 580.5L467 580.5Z" fill="#2EAFFF"/>
<path d="M1206.75 110.251C1207.57 110.251 1208.24 109.581 1208.24 108.754C1208.24 107.928 1207.57 107.258 1206.75 107.258L1206.75 108.754L1206.75 110.251ZM718.188 107.697C717.604 108.281 717.604 109.229 718.188 109.813L727.71 119.335C728.295 119.92 729.242 119.92 729.827 119.335C730.411 118.751 730.411 117.804 729.827 117.219L721.362 108.755L729.827 100.29C730.411 99.7062 730.411 98.7587 729.827 98.1744C729.242 97.5901 728.295 97.5901 727.71 98.1744L718.188 107.697ZM1206.75 108.754L1206.75 107.258L719.246 107.259L719.246 108.755L719.246 110.251L1206.75 110.251L1206.75 108.754Z" fill="#2EAFFF"/>
<path d="M723 854L847 854C877.376 854 902 829.376 902 799L902 471C902 440.624 926.624 416 957 416L995 416C1025.38 416 1050 391.376 1050 361L1050 -44" stroke="#2EAFFF" stroke-width="2.9926" stroke-linejoin="round"/>
<path d="M225 551.999L225 334.499C225 304.123 249.624 279.499 280 279.499L441 279.5C471.376 279.5 496 254.875 496 224.5L496 132.499C496 102.123 471.376 77.4986 441 77.4986L103.756 77.4986C73.3804 77.4986 48.7561 52.8743 48.7561 22.4986L48.7561 -279C48.7561 -309.376 24.1318 -334 -6.24389 -334L-196 -334" stroke="#2EAFFF" stroke-width="2.9926" stroke-linejoin="round"/>
<rect x="1037.46" y="83.9619" width="25.0762" height="50.0762" rx="12.5381" fill="#2EAFFF" stroke="#2EAFFF" stroke-width="1.92382"/>
<rect x="63.9619" y="426.962" width="16.0762" height="38.0762" rx="8.0381" fill="#2EAFFF" stroke="#2EAFFF" stroke-width="1.92382"/>
<path d="M399.4 45.28C398.709 45.28 398.149 45.0747 397.72 44.664C397.309 44.2533 397.104 43.7213 397.104 43.068C397.104 42.3773 397.309 41.8173 397.72 41.388C398.149 40.9587 398.709 40.744 399.4 40.744C400.091 40.744 400.641 40.9587 401.052 41.388C401.481 41.8173 401.696 42.3773 401.696 43.068C401.696 43.7213 401.481 44.2533 401.052 44.664C400.641 45.0747 400.091 45.28 399.4 45.28ZM412.745 42.116L410.813 40.744L412.633 38.14C412.876 37.804 413.202 37.3933 413.613 36.908C414.042 36.4227 414.444 35.9933 414.817 35.62C414.294 35.5453 413.744 35.4333 413.165 35.284C412.586 35.1347 412.129 34.9947 411.793 34.864L408.797 33.744L409.581 31.532L412.605 32.652C412.922 32.764 413.342 32.9413 413.865 33.184C414.388 33.4267 414.864 33.6787 415.293 33.94C415.2 33.4547 415.125 32.96 415.069 32.456C415.032 31.9333 415.013 31.4947 415.013 31.14V27.64H417.365V31.14C417.365 31.4947 417.337 31.9333 417.281 32.456C417.225 32.96 417.15 33.4547 417.057 33.94C417.505 33.6787 417.981 33.4267 418.485 33.184C419.008 32.9413 419.437 32.764 419.773 32.652L422.797 31.532L423.581 33.744L420.585 34.864C420.249 34.9947 419.792 35.1347 419.213 35.284C418.634 35.4333 418.084 35.5453 417.561 35.62C417.934 35.9933 418.336 36.432 418.765 36.936C419.194 37.4213 419.521 37.8227 419.745 38.14L421.565 40.744L419.633 42.116L417.813 39.484C417.589 39.1667 417.318 38.728 417.001 38.168C416.684 37.608 416.413 37.0853 416.189 36.6C415.965 37.0853 415.694 37.608 415.377 38.168C415.06 38.7093 414.789 39.148 414.565 39.484L412.745 42.116Z" fill="#2EAFFF"/>
</g>
<g clip-path="url(#clip2_16353_32081)">
<mask id="mask0_16353_32081" style="mask-type:luminance" maskUnits="userSpaceOnUse" x="411" y="299" width="406" height="85">
<path d="M816.777 299H411V384H816.777V299Z" fill="white"/>
</mask>
<g mask="url(#mask0_16353_32081)">
<path fill-rule="evenodd" clip-rule="evenodd" d="M449.588 384C455.837 384 461.489 379.067 465.529 371.124C475.489 372.161 483.528 369.828 486.908 364.02C490.218 358.323 488.373 350.445 482.762 342.557C488.226 334.756 489.995 326.989 486.721 321.358C483.487 315.793 475.975 313.42 466.598 314.138C462.523 304.879 456.415 299 449.588 299C442.76 299 436.597 304.935 432.516 314.27C423.342 313.657 416.008 316.04 412.825 321.52C409.576 327.111 411.299 334.811 416.672 342.557C411.152 350.39 409.358 358.201 412.642 363.853C415.972 369.58 423.829 371.923 433.586 371.002C437.631 379.016 443.302 384 449.588 384ZM437.722 370.435C441.163 377.023 445.781 381.055 450.86 381.055C455.939 381.055 460.49 377.235 464.099 370.957C459.532 370.344 454.606 369.054 449.562 367.091C445.492 368.644 441.503 369.762 437.722 370.435ZM443.982 364.657C441.229 365.543 438.548 366.211 435.993 366.656C435.01 364.202 434.164 361.505 433.484 358.611C435.167 359.75 436.926 360.853 438.751 361.9C440.489 362.897 442.233 363.818 443.977 364.657H443.982ZM449.583 362.588C452.593 361.333 455.65 359.836 458.686 358.09C463.086 355.565 467.064 352.757 470.511 349.813C470.815 347.131 470.978 344.354 470.978 341.5C470.978 337.852 470.714 334.315 470.222 330.961C467.318 328.613 464.084 326.382 460.561 324.363C456.897 322.264 453.191 320.538 449.557 319.193C446.065 320.513 442.507 322.183 438.989 324.201C436.779 325.471 434.676 326.822 432.704 328.234C431.984 332.383 431.594 336.845 431.594 341.5C431.594 345.371 431.862 349.115 432.369 352.651C434.975 354.624 437.823 356.507 440.869 358.257C443.774 359.922 446.698 361.369 449.583 362.588ZM455.163 364.688C457.044 363.797 458.924 362.811 460.799 361.738C463.927 359.942 466.847 357.999 469.533 355.96C468.676 360.084 467.475 363.873 466.005 367.182C462.609 366.772 458.954 365.937 455.163 364.688ZM470.663 355.08C469.878 359.537 468.717 363.661 467.252 367.319C475.62 368.093 482.225 366.185 484.977 361.455C487.623 356.896 486.305 350.395 481.961 343.665C479.052 347.576 475.225 351.467 470.663 355.08ZM480.218 339.279C484.729 332.691 486.183 326.316 483.522 321.732C480.942 317.295 474.875 315.17 467.141 315.408C468.935 319.815 470.288 324.92 471.064 330.47C474.591 333.283 477.668 336.258 480.213 339.279H480.218ZM465.848 315.469C467.698 319.542 469.138 324.353 470.014 329.646C467.252 327.521 464.226 325.497 460.982 323.635C457.611 321.702 454.205 320.058 450.85 318.712C456.141 316.83 461.256 315.752 465.843 315.464L465.848 315.469ZM465.275 314.26C460.389 314.776 455.041 316.096 449.562 318.216C445.112 316.531 440.758 315.368 436.673 314.735C440.195 306.873 445.249 301.95 450.86 301.95C456.471 301.95 461.545 306.68 465.275 314.26ZM448.265 318.727C444.063 317.265 439.977 316.309 436.186 315.858C434.817 319.157 433.707 322.921 432.922 327.02C434.716 325.785 436.597 324.601 438.563 323.473C441.792 321.621 445.046 320.037 448.265 318.727ZM428.091 330.622C428.857 325.077 430.195 319.977 431.974 315.565C424.447 315.423 418.557 317.548 416.028 321.899C413.387 326.443 414.796 332.737 419.211 339.264C421.69 336.304 424.675 333.385 428.091 330.622ZM417.473 343.676C420.311 347.521 424.036 351.356 428.487 354.928C429.262 359.39 430.418 363.524 431.873 367.192C423.702 367.865 417.275 365.943 414.568 361.293C411.943 356.775 413.215 350.344 417.467 343.681L417.473 343.676ZM419.905 340.255C422.105 337.447 424.797 334.644 427.919 331.973C427.554 335.034 427.356 338.226 427.356 341.5C427.356 343.984 427.468 346.418 427.681 348.786C424.584 345.998 421.958 343.109 419.9 340.25L419.905 340.255ZM479.523 340.26C477.399 343.18 474.688 346.129 471.479 348.968C471.702 346.544 471.824 344.045 471.824 341.5C471.824 338.166 471.621 334.918 471.241 331.806C474.47 334.523 477.258 337.387 479.523 340.26Z" fill="#225677"/>
<path d="M514.573 322.259H508.739L507.543 325.411H504.872L510.382 311.082H513.119L518.73 325.411H515.81L514.573 322.259ZM513.763 320.118L511.634 314.679L509.566 320.118H513.757H513.763Z" fill="#225677"/>
<path d="M530.393 311.082H536.105C537.509 311.082 538.68 311.512 539.607 312.377C540.54 313.238 541.006 314.371 541.006 315.772C541.006 317.174 540.54 318.327 539.607 319.188C538.675 320.048 537.509 320.483 536.105 320.483H533.13V325.416H530.398V311.087L530.393 311.082ZM533.125 317.852H536.12C536.703 317.852 537.19 317.654 537.58 317.265C537.97 316.86 538.168 316.364 538.168 315.767C538.168 315.17 537.97 314.685 537.58 314.29C537.2 313.9 536.713 313.703 536.12 313.703H533.125V317.847V317.852Z" fill="#225677"/>
<path d="M559.852 322.259H554.018L552.822 325.411H550.15L555.66 311.082H558.392L564.003 325.411H561.084L559.847 322.259H559.852ZM559.041 320.118L556.912 314.679L554.844 320.118H559.036H559.041Z" fill="#225677"/>
<path d="M581.302 310.637C582.609 310.637 583.801 310.981 584.865 311.669C585.945 312.342 586.801 313.258 587.44 314.416L584.906 315.631C584.029 313.961 582.827 313.126 581.302 313.126C580.1 313.126 579.102 313.627 578.301 314.624C577.521 315.605 577.125 316.82 577.125 318.262C577.125 319.704 577.515 320.918 578.301 321.899C579.087 322.871 580.085 323.357 581.302 323.357C582.042 323.357 582.731 323.149 583.37 322.729C584.003 322.299 584.51 321.732 584.89 321.029L587.384 322.223C586.776 323.357 585.935 324.242 584.85 324.89C583.77 325.522 582.589 325.841 581.307 325.841C579.254 325.841 577.571 325.132 576.264 323.721C574.956 322.294 574.297 320.473 574.297 318.262C574.297 316.051 574.961 314.244 576.284 312.802C577.622 311.36 579.295 310.642 581.307 310.642L581.302 310.637Z" fill="#225677"/>
<path d="M610.447 325.411H607.71V319.547H602.139V325.411H599.407V311.082H602.139V316.926H607.71V311.082H610.447V325.411Z" fill="#225677"/>
<path d="M631.573 313.708H625.861V316.941H630.174V319.567H625.861V322.78H631.573V325.406H623.129V311.077H631.573V313.703V313.708Z" fill="#225677"/>
<path d="M504.771 337.503H516.048C521.817 337.503 526.353 339.122 529.658 342.355C532.998 345.558 534.666 349.666 534.666 354.675C534.666 359.684 532.998 363.812 529.658 367.045C526.318 370.279 521.766 371.898 515.998 371.898H504.766V337.503H504.771ZM512.353 344.784V364.622H515.754C517.214 364.622 518.557 364.46 519.789 364.136C521.051 363.812 522.222 363.296 523.292 362.583C524.391 361.87 525.253 360.853 525.866 359.527C526.48 358.171 526.789 356.552 526.789 354.675C526.789 352.798 526.48 351.199 525.866 349.873C525.248 348.548 524.391 347.531 523.292 346.818C522.222 346.104 521.072 345.588 519.84 345.264C518.608 344.94 517.245 344.779 515.754 344.779H512.353V344.784Z" fill="#225677"/>
<path d="M558.914 365.204H545.299L542.77 371.898H535.38L548.553 337.503H556.136L569.604 371.898H561.484L558.909 365.204H558.914ZM556.673 359.385L552.056 347.45L547.535 359.385H556.673Z" fill="#225677"/>
<path d="M594.84 344.784H584.824V371.903H577.242V344.784H567.373V337.508H594.84V344.784Z" fill="#225677"/>
<path d="M616.164 365.204H602.555L600.026 371.898H592.636L605.809 337.503H613.392L626.859 371.898H618.739L616.164 365.204ZM613.929 359.385L609.312 347.45L604.79 359.385H613.929Z" fill="#225677"/>
<path d="M651.625 344.784H638.304V351.088H648.416V358.363H638.304V371.898H630.722V337.503H651.625V344.779V344.784Z" fill="#225677"/>
<path d="M685.574 337.503V359.188C685.544 363.393 684.181 366.722 681.489 369.181C678.833 371.64 675.346 372.869 671.038 372.869C666.729 372.869 663.308 371.64 660.586 369.181C657.864 366.722 656.521 363.393 656.551 359.188V337.503H664.088V359.234C664.088 361.171 664.737 362.725 666.035 363.888C667.363 365.022 669.035 365.588 671.043 365.588C673.05 365.588 674.707 365.022 676 363.888C677.297 362.725 677.961 361.171 677.992 359.234V337.503H685.574Z" fill="#225677"/>
<path d="M704.319 336.435C707.882 336.435 711.045 337.245 713.797 338.859L710.442 345.163C708.014 344.126 705.708 343.61 703.538 343.61C700.396 343.61 698.825 344.662 698.825 346.762C698.825 347.799 699.423 348.669 700.624 349.383C701.856 350.061 703.604 350.804 705.875 351.614C708.176 352.388 709.91 353.117 711.076 353.795C714.218 355.606 715.789 358.323 715.789 361.946C715.789 365.34 714.542 368.012 712.044 369.95C709.55 371.893 706.438 372.859 702.712 372.859C700.604 372.859 698.419 372.469 696.148 371.695C693.878 370.921 692.114 370.031 690.852 369.029L694.937 362.968C698.404 365.007 701.546 365.892 704.37 365.634C705.47 365.538 706.382 365.148 707.092 364.47C707.837 363.792 708.146 362.968 708.014 361.996C707.882 361.09 707.122 360.347 705.728 359.765C704.334 359.153 702.52 358.439 700.284 357.63C698.079 356.82 696.28 355.869 694.886 354.766C692.327 352.697 691.044 350.127 691.044 347.055C691.044 345.538 691.303 344.161 691.82 342.932C692.337 341.702 693.021 340.701 693.862 339.926C694.739 339.117 695.758 338.454 696.924 337.938C698.09 337.387 699.291 337.002 700.523 336.774C701.754 336.547 703.016 336.435 704.314 336.435H704.319Z" fill="#225677"/>
<path d="M728.699 371.898H721.116V337.503H728.699V371.898Z" fill="#225677"/>
<path d="M738.962 341.581C742.429 338.151 746.788 336.44 752.04 336.44C757.291 336.44 761.614 338.156 765.02 341.581C768.457 344.976 770.175 349.292 770.175 354.533C770.175 359.775 768.508 364.106 765.167 367.531C761.827 370.926 757.453 372.707 752.04 372.869C746.788 372.869 742.429 371.139 738.962 367.678C735.526 364.187 733.808 359.82 733.808 354.579C733.808 349.337 735.526 345.006 738.962 341.576V341.581ZM752.04 343.326C748.897 343.326 746.383 344.379 744.502 346.479C742.622 348.578 741.684 351.265 741.684 354.533C741.684 357.802 742.622 360.534 744.502 362.73C746.413 364.895 748.927 365.978 752.04 365.978C755.152 365.978 757.676 364.895 759.526 362.73C761.371 360.564 762.299 357.847 762.299 354.579C762.299 351.31 761.376 348.644 759.526 346.575C757.711 344.475 755.218 343.387 752.04 343.326Z" fill="#225677"/>
<path d="M803.822 371.898H796.041L782.381 350.602V371.898H775.285V337.503H782.528L796.726 358.991V337.503H803.822V371.898Z" fill="#225677"/>
<path d="M810.416 338.555H808.698V343.24H807.603V338.555H805.915V337.503H810.416V338.555ZM816.777 343.245H815.723V339.562L814.212 342.406H813.513L812.003 339.562L811.992 343.245H810.968V337.508H811.997L813.893 341.014L815.708 337.508H816.752L816.762 343.245H816.777Z" fill="#225677"/>
</g>
</g>
<g clip-path="url(#clip3_16353_32081)">
<path d="M572.099 211.345C572.099 216.175 570.734 220.217 565.647 220.217C560.559 220.217 559.194 216.175 559.194 211.345V190.783H550.011V213.326C550.011 222.121 557.084 227.247 565.647 227.247C574.209 227.247 581.282 222.121 581.282 213.326V190.783H572.099V211.345Z" fill="#225677"/>
<path d="M517.867 178.462H503.633V226.377H517.867C533.096 226.377 544.552 221.419 544.552 202.387C544.552 183.352 533.096 178.462 517.867 178.462ZM517.471 218.977H513.101V185.864H517.471C526.21 185.864 534.752 188.044 534.752 202.387C534.752 216.859 526.21 218.977 517.471 218.977Z" fill="#225677"/>
<path d="M604.698 220.164C599.666 220.164 596.091 216.002 596.091 208.534C596.091 201.13 599.865 197.099 604.633 197.099C608.141 197.099 611.321 199.545 612.047 202.982H620.786C619.529 194.192 612.115 190.028 604.633 190.028C593.972 190.028 586.754 197.826 586.754 208.665C586.754 219.439 593.573 227.237 604.235 227.237C611.652 227.237 618.999 223.999 621.117 214.282H612.379C611.121 218.512 607.877 220.164 604.698 220.164Z" fill="#225677"/>
<path d="M658.854 190.82H648.591L635.612 205.097V178.462H626.478V226.377H635.612V215.671L639.984 210.979L649.318 226.377H659.581L646.074 204.436L658.854 190.82Z" fill="#225677"/>
<path d="M672.818 178.462H663.35V226.377H696.189V218.71H672.818V178.462Z" fill="#225677"/>
<path d="M723.663 195.381C721.743 192.01 718.101 190.028 713.596 190.028C704.925 190.028 697.906 197.43 697.906 208.598C697.906 219.965 705.121 227.237 713.596 227.237C717.306 227.237 721.345 225.848 723.663 221.884V226.377H732.8V190.82H723.663V195.381ZM715.651 220.232C710.883 220.232 707.507 215.604 707.507 208.665C707.507 201.725 710.883 197.033 715.651 197.033C720.682 197.033 723.994 201.461 723.994 208.598C723.994 215.935 720.682 220.232 715.651 220.232Z" fill="#225677"/>
<path d="M773.313 190.82H763.05L750.074 205.097V178.462H740.937V226.377H750.074V215.671L754.443 210.979L763.78 226.377H774.043L760.536 204.436L773.313 190.82Z" fill="#225677"/>
<path d="M792.707 220.164C788.338 220.164 784.232 217.189 783.705 211.111H809.989C810.32 198.553 803.501 190.028 792.511 190.028C781.982 190.028 774.632 197.892 774.632 208.467C774.632 218.711 781.319 227.237 792.775 227.237C802.507 227.237 807.674 221.355 809.593 216.066H800.189C798.337 219.173 795.556 220.164 792.707 220.164ZM792.444 196.703C796.283 196.703 800.52 198.818 800.719 204.832H783.837C784.563 198.818 789 196.703 792.444 196.703Z" fill="#225677"/>
<path d="M424.6 148C394.446 148 370 172.401 370 202.5C370 232.599 394.446 257 424.6 257C454.754 257 479.2 232.599 479.2 202.5C479.2 172.401 454.754 148 424.6 148Z" fill="#225677"/>
<path fill-rule="evenodd" clip-rule="evenodd" d="M417.713 175.56C427.64 175.56 436.326 180.886 440.918 188.813H445.881C452.706 188.813 458.415 194.263 458.415 201.199C458.415 208.012 452.831 213.71 445.881 213.71H442.283C438.188 222.752 429.253 229.069 418.83 229.44H416.348C402.077 228.697 390.785 216.93 390.785 202.562C390.785 187.698 402.822 175.56 417.713 175.56ZM417.713 183.735C407.413 183.735 398.975 192.158 398.975 202.438C398.975 212.843 407.413 221.141 417.713 221.141C426.027 221.141 433.1 215.691 435.582 208.26L436.451 205.411H445.881C448.115 205.411 450.101 203.429 450.101 201.199C450.101 198.97 448.239 196.988 445.881 196.988H435.83L434.713 194.635C431.735 188.194 425.282 183.735 417.713 183.735Z" fill="#2EAFFF"/>
</g>
</g>
<defs>
<linearGradient id="paint0_linear_16353_32081" x1="589" y1="-26.5" x2="587" y2="627" gradientUnits="userSpaceOnUse">
<stop stop-color="#FDEF00"/>
<stop offset="0.938633" stop-color="#FFFAA3"/>
</linearGradient>
<linearGradient id="paint1_linear_16353_32081" x1="589" y1="-26.5" x2="587" y2="627" gradientUnits="userSpaceOnUse">
<stop stop-color="#2EAFFF"/>
<stop offset="0.938633" stop-color="#99D8FF"/>
</linearGradient>
<clipPath id="clip0_16353_32081">
<rect width="1200" height="515" fill="white"/>
</clipPath>
<clipPath id="clip1_16353_32081">
<rect width="1200" height="515" fill="white"/>
</clipPath>
<clipPath id="clip2_16353_32081">
<rect width="406" height="85" fill="white" transform="translate(411 299)"/>
</clipPath>
<clipPath id="clip3_16353_32081">
<rect width="440" height="109" fill="white" transform="translate(370 148)"/>
</clipPath>
</defs>
</svg>
