<svg width="69" height="69" viewBox="0 0 69 69" fill="none" xmlns="http://www.w3.org/2000/svg">
<path d="M15.2285 1.22998H54.4678C62.0927 1.23014 68.2734 7.41167 68.2734 15.0366V54.2759C68.2733 61.9007 62.0926 68.0814 54.4678 68.0815H15.2285C7.60357 68.0815 1.42203 61.9008 1.42188 54.2759V15.0366C1.42188 7.53069 7.41168 1.42383 14.8721 1.23486L15.2285 1.22998Z" fill="white"/>
<path d="M15.2285 1.22998H54.4678C62.0927 1.23014 68.2734 7.41167 68.2734 15.0366V54.2759C68.2733 61.9007 62.0926 68.0814 54.4678 68.0815H15.2285C7.60357 68.0815 1.42203 61.9008 1.42188 54.2759V15.0366C1.42188 7.53069 7.41168 1.42383 14.8721 1.23486L15.2285 1.22998Z" fill="url(#paint0_linear_6165_3976)"/>
<path d="M15.2285 1.22998H54.4678C62.0927 1.23014 68.2734 7.41167 68.2734 15.0366V54.2759C68.2733 61.9007 62.0926 68.0814 54.4678 68.0815H15.2285C7.60357 68.0815 1.42203 61.9008 1.42188 54.2759V15.0366C1.42188 7.53069 7.41168 1.42383 14.8721 1.23486L15.2285 1.22998Z" stroke="#E6E6E6" stroke-width="1.4533"/>
<path d="M60.2814 48.8255V20.4866L35.5753 6.31665L10.8691 20.4866V48.8255L35.5753 62.9954L60.2814 48.8255Z" fill="black"/>
<path d="M31.0729 41.421C36.6393 41.421 41.1517 36.9086 41.1517 31.3422C41.1517 25.7759 36.6393 21.2634 31.0729 21.2634C25.5066 21.2634 20.9941 25.7759 20.9941 31.3422C20.9941 36.9086 25.5066 41.421 31.0729 41.421Z" stroke="#2EAFFF" stroke-width="3.85107" stroke-miterlimit="10" stroke-linecap="square"/>
<path d="M46.4844 35.4089H48.0468C50.374 35.4089 52.305 33.4778 52.305 31.1507C52.305 28.8235 50.374 26.9475 48.0468 26.9475H46.4844" stroke="#2EAFFF" stroke-width="3.85107" stroke-miterlimit="10" stroke-linecap="square"/>
<path d="M17.7344 43.3689C22.7353 44.7003 24.0116 48.1222 31.1086 48.1222C39.7625 48.1222 39.7625 42.8958 48.4219 42.8958C50.1329 42.8958 51.5028 43.1103 52.6691 43.4569" stroke="#2EAFFF" stroke-width="3.85107" stroke-miterlimit="10" stroke-linecap="square"/>
<defs>
<linearGradient id="paint0_linear_6165_3976" x1="34.8479" y1="0.503418" x2="34.8479" y2="68.8086" gradientUnits="userSpaceOnUse">
<stop stop-color="#FAFAFA"/>
<stop offset="1" stop-color="#F2F2F2"/>
</linearGradient>
</defs>
</svg>
