<svg width="56" height="56" viewBox="0 0 56 56" fill="none" xmlns="http://www.w3.org/2000/svg">
<path d="M12.6436 1.7124H44.123C50.1522 1.71263 55.04 6.60022 55.04 12.6294V44.1089C55.0398 50.1379 50.152 55.0256 44.123 55.0259H12.6436C6.61438 55.0259 1.72679 50.138 1.72656 44.1089V12.6294C1.72656 6.60007 6.61423 1.7124 12.6436 1.7124Z" fill="white"/>
<path d="M12.6436 1.7124H44.123C50.1522 1.71263 55.04 6.60022 55.04 12.6294V44.1089C55.0398 50.1379 50.152 55.0256 44.123 55.0259H12.6436C6.61438 55.0259 1.72679 50.138 1.72656 44.1089V12.6294C1.72656 6.60007 6.61423 1.7124 12.6436 1.7124Z" fill="url(#paint0_linear_6213_1766)"/>
<path d="M12.6436 1.7124H44.123C50.1522 1.71263 55.04 6.60022 55.04 12.6294V44.1089C55.0398 50.1379 50.152 55.0256 44.123 55.0259H12.6436C6.61438 55.0259 1.72679 50.138 1.72656 44.1089V12.6294C1.72656 6.60007 6.61423 1.7124 12.6436 1.7124Z" stroke="#333333" stroke-width="1.48387"/>
<path d="M27.8893 51.4312C15.3116 51.4312 5.1543 41.2739 5.1543 28.6962C5.1543 16.1185 15.3116 5.96118 27.8893 5.96118C40.467 5.96118 50.6243 16.1185 50.6243 28.6962C50.6243 41.2739 40.467 51.4312 27.8893 51.4312Z" fill="#2A2A2A"/>
<path d="M40.3378 25.2263H35.8672V31.9731H40.3378C42.1915 31.9731 43.7317 30.433 43.7317 28.5793C43.7317 26.712 42.1915 25.2263 40.3378 25.2263Z" fill="#FFF100"/>
<path d="M13.9668 28.606C13.9668 33.8126 18.2057 38.0515 23.4123 38.0515C28.619 38.0515 32.8579 33.8126 32.8579 28.606C32.8579 23.3993 28.619 19.1604 23.4123 19.1604C18.2057 19.1604 13.9668 23.3993 13.9668 28.606Z" fill="#FFF100"/>
<defs>
<linearGradient id="paint0_linear_6213_1766" x1="28.383" y1="0.970215" x2="28.383" y2="55.7674" gradientUnits="userSpaceOnUse">
<stop stop-color="#0D0D0D"/>
<stop offset="1" stop-color="#1A1A1A"/>
</linearGradient>
</defs>
</svg>
