<svg width="750" height="351" viewBox="0 0 750 351" fill="none" xmlns="http://www.w3.org/2000/svg">
<g clip-path="url(#clip0_6338_1920)">
<rect x="0.5" y="0.5" width="749" height="244" rx="11.5" fill="#CCEBFF" fill-opacity="0.6"/>
<rect x="0.5" y="0.5" width="749" height="244" rx="11.5" stroke="#99D8FF"/>
<path d="M28.304 37H26.032L23.168 28.28V37H21.04V25.4H24.368L27.184 34.44L29.92 25.4H33.28V37H31.152V28.28L28.304 37ZM43.2885 33.304H36.9365C37.0645 34.776 38.0565 35.496 39.1125 35.496C39.8005 35.496 40.4725 35.256 40.9205 34.504H43.1925C42.7285 35.784 41.4805 37.208 39.1285 37.208C36.3605 37.208 34.7445 35.144 34.7445 32.664C34.7445 30.104 36.5205 28.2 39.0645 28.2C41.7205 28.2 43.3685 30.264 43.2885 33.304ZM39.0485 29.816C38.2165 29.816 37.1445 30.328 36.9685 31.784H41.0485C41.0005 30.328 39.9765 29.816 39.0485 29.816ZM45.0148 28.392V26.056H47.2228V28.392H49.0148V29.912H47.2228V34.36C47.2228 35.24 47.5268 35.416 48.3108 35.416H48.9828V37H47.3668C45.3828 37 45.0148 36.392 45.0148 34.68V29.912H43.7988V28.392H45.0148ZM55.8055 33.704V33.064C53.3255 33.32 52.3495 33.608 52.3495 34.568C52.3495 35.192 52.8295 35.704 53.8375 35.704C55.2295 35.704 55.8055 34.968 55.8055 33.704ZM55.9975 35.928C55.3735 36.824 54.4775 37.208 53.1815 37.208C51.5335 37.208 50.0775 36.248 50.0775 34.68C50.0775 32.648 52.3495 32.04 55.7415 31.656V31.512C55.7415 30.184 55.0215 29.72 54.1255 29.72C53.2775 29.72 52.5735 30.152 52.5255 31.112H50.4615C50.6375 29.416 52.0135 28.168 54.2375 28.168C56.2695 28.168 57.9495 29.064 57.9495 31.96C57.9495 32.216 57.9175 33.384 57.9175 34.152C57.9175 35.512 57.9975 36.28 58.1735 37H56.1415C56.0775 36.728 56.0455 36.36 55.9975 35.928ZM67.6609 37H65.4529V35.912C64.8929 36.872 63.8689 37.208 62.9729 37.208C60.9249 37.208 59.2289 35.448 59.2289 32.696C59.2289 29.992 60.8929 28.2 62.9729 28.2C64.0609 28.2 64.9889 28.68 65.4529 29.496V25.4H67.6609V37ZM63.5169 35.512C64.7329 35.512 65.5329 34.472 65.5329 32.696C65.5329 30.968 64.7329 29.896 63.5169 29.896C62.3649 29.896 61.5489 31.032 61.5489 32.712C61.5489 34.392 62.3649 35.512 63.5169 35.512ZM75.0243 33.704V33.064C72.5443 33.32 71.5683 33.608 71.5683 34.568C71.5683 35.192 72.0483 35.704 73.0563 35.704C74.4483 35.704 75.0243 34.968 75.0243 33.704ZM75.2163 35.928C74.5923 36.824 73.6963 37.208 72.4003 37.208C70.7523 37.208 69.2963 36.248 69.2963 34.68C69.2963 32.648 71.5683 32.04 74.9603 31.656V31.512C74.9603 30.184 74.2403 29.72 73.3443 29.72C72.4963 29.72 71.7923 30.152 71.7443 31.112H69.6803C69.8563 29.416 71.2323 28.168 73.4563 28.168C75.4883 28.168 77.1683 29.064 77.1683 31.96C77.1683 32.216 77.1363 33.384 77.1363 34.152C77.1363 35.512 77.2163 36.28 77.3923 37H75.3603C75.2963 36.728 75.2643 36.36 75.2163 35.928ZM79.3116 28.392V26.056H81.5196V28.392H83.3116V29.912H81.5196V34.36C81.5196 35.24 81.8236 35.416 82.6076 35.416H83.2796V37H81.6636C79.6796 37 79.3116 36.392 79.3116 34.68V29.912H78.0956V28.392H79.3116ZM90.1024 33.704V33.064C87.6224 33.32 86.6464 33.608 86.6464 34.568C86.6464 35.192 87.1264 35.704 88.1344 35.704C89.5264 35.704 90.1024 34.968 90.1024 33.704ZM90.2944 35.928C89.6704 36.824 88.7744 37.208 87.4784 37.208C85.8304 37.208 84.3744 36.248 84.3744 34.68C84.3744 32.648 86.6464 32.04 90.0384 31.656V31.512C90.0384 30.184 89.3184 29.72 88.4224 29.72C87.5744 29.72 86.8704 30.152 86.8224 31.112H84.7584C84.9344 29.416 86.3104 28.168 88.5344 28.168C90.5664 28.168 92.2464 29.064 92.2464 31.96C92.2464 32.216 92.2144 33.384 92.2144 34.152C92.2144 35.512 92.2944 36.28 92.4704 37H90.4384C90.3744 36.728 90.3424 36.36 90.2944 35.928ZM99.9031 25.4V37H97.6951V25.4H99.9031ZM107.259 33.704V33.064C104.779 33.32 103.803 33.608 103.803 34.568C103.803 35.192 104.283 35.704 105.291 35.704C106.683 35.704 107.259 34.968 107.259 33.704ZM107.451 35.928C106.827 36.824 105.931 37.208 104.635 37.208C102.987 37.208 101.531 36.248 101.531 34.68C101.531 32.648 103.803 32.04 107.195 31.656V31.512C107.195 30.184 106.475 29.72 105.579 29.72C104.731 29.72 104.027 30.152 103.979 31.112H101.915C102.091 29.416 103.467 28.168 105.691 28.168C107.723 28.168 109.403 29.064 109.403 31.96C109.403 32.216 109.371 33.384 109.371 34.152C109.371 35.512 109.451 36.28 109.627 37H107.595C107.531 36.728 107.499 36.36 107.451 35.928ZM111.95 39.8H111.022V38.104H111.854C112.59 38.104 112.91 38.12 113.294 37.208L113.39 36.968L110.094 28.392H112.51L114.462 34.6L116.462 28.392H118.702L115.55 36.744C114.526 39.416 114.094 39.8 111.95 39.8ZM127.523 33.304H121.171C121.299 34.776 122.291 35.496 123.347 35.496C124.035 35.496 124.707 35.256 125.155 34.504H127.427C126.963 35.784 125.715 37.208 123.363 37.208C120.595 37.208 118.979 35.144 118.979 32.664C118.979 30.104 120.755 28.2 123.299 28.2C125.955 28.2 127.603 30.264 127.523 33.304ZM123.283 29.816C122.451 29.816 121.379 30.328 121.203 31.784H125.283C125.235 30.328 124.211 29.816 123.283 29.816ZM133.873 28.44V30.52C133.553 30.472 133.281 30.472 132.961 30.472C131.873 30.472 131.153 30.872 131.153 32.488V37H128.945V28.392H131.121V29.896C131.617 28.824 132.385 28.408 133.393 28.408C133.537 28.408 133.729 28.424 133.873 28.44Z" fill="#0D0D0D"/>
<path d="M240 20.5H337C342.247 20.5 346.5 24.7533 346.5 30V85C346.5 90.2467 342.247 94.5 337 94.5H240C234.753 94.5 230.5 90.2467 230.5 85V30C230.5 24.7533 234.753 20.5 240 20.5Z" fill="#F5FBFF"/>
<path d="M240 20.5H337C342.247 20.5 346.5 24.7533 346.5 30V85C346.5 90.2467 342.247 94.5 337 94.5H240C234.753 94.5 230.5 90.2467 230.5 85V30C230.5 24.7533 234.753 20.5 240 20.5Z" stroke="#99D8FF"/>
<path d="M257.011 41H255.867V35.082H257.011V35.94C257.352 35.357 257.913 34.972 258.76 34.972C259.673 34.972 260.212 35.357 260.476 36.017C260.971 35.28 261.664 34.972 262.434 34.972C263.82 34.972 264.359 35.896 264.359 37.271V41H263.215V37.579C263.215 36.721 263.083 35.929 262.049 35.929C261.147 35.929 260.685 36.644 260.685 37.821V41H259.541V37.579C259.541 36.721 259.409 35.929 258.375 35.929C257.462 35.929 257.011 36.644 257.011 37.821V41ZM269.852 39.262H271.007C270.732 40.241 269.852 41.143 268.345 41.143C266.431 41.143 265.397 39.746 265.397 38.03C265.397 36.193 266.629 34.972 268.312 34.972C270.138 34.972 271.205 36.468 271.084 38.393H266.574C266.684 39.482 267.377 40.164 268.301 40.164C269.126 40.164 269.61 39.823 269.852 39.262ZM266.596 37.491H269.896C269.863 36.611 269.247 35.907 268.301 35.907C267.41 35.907 266.75 36.369 266.596 37.491ZM272.437 33.564H273.581V35.082H274.747V35.951H273.581V39.328C273.581 39.933 273.68 40.087 274.252 40.087H274.736V41H273.9C272.701 41 272.437 40.703 272.437 39.482V35.951H271.535V35.082H272.437V33.564ZM275.506 39.405C275.506 37.964 277.2 37.579 279.499 37.337V37.216C279.499 36.171 278.949 35.819 278.223 35.819C277.431 35.819 276.98 36.226 276.936 36.952H275.781C275.88 35.698 276.914 34.939 278.267 34.939C279.796 34.939 280.676 35.676 280.654 37.447C280.654 37.59 280.632 38.613 280.632 38.866C280.632 39.746 280.687 40.472 280.797 41H279.697C279.653 40.769 279.62 40.593 279.598 40.219C279.246 40.813 278.575 41.143 277.618 41.143C276.419 41.143 275.506 40.483 275.506 39.405ZM279.554 38.184C277.717 38.36 276.749 38.613 276.749 39.383C276.749 39.922 277.178 40.263 277.871 40.263C278.817 40.263 279.554 39.79 279.554 38.613V38.184ZM286.06 33.025H287.204V41H286.06V40.164C285.697 40.769 285.081 41.143 284.212 41.143C282.837 41.143 281.66 39.988 281.66 38.052C281.66 36.127 282.837 34.972 284.212 34.972C285.081 34.972 285.697 35.346 286.06 35.951V33.025ZM284.476 35.929C283.53 35.929 282.881 36.721 282.881 38.052C282.881 39.383 283.53 40.186 284.476 40.186C285.356 40.186 286.104 39.515 286.104 38.052C286.104 36.589 285.356 35.929 284.476 35.929ZM288.397 39.405C288.397 37.964 290.091 37.579 292.39 37.337V37.216C292.39 36.171 291.84 35.819 291.114 35.819C290.322 35.819 289.871 36.226 289.827 36.952H288.672C288.771 35.698 289.805 34.939 291.158 34.939C292.687 34.939 293.567 35.676 293.545 37.447C293.545 37.59 293.523 38.613 293.523 38.866C293.523 39.746 293.578 40.472 293.688 41H292.588C292.544 40.769 292.511 40.593 292.489 40.219C292.137 40.813 291.466 41.143 290.509 41.143C289.31 41.143 288.397 40.483 288.397 39.405ZM292.445 38.184C290.608 38.36 289.64 38.613 289.64 39.383C289.64 39.922 290.069 40.263 290.762 40.263C291.708 40.263 292.445 39.79 292.445 38.613V38.184ZM295.189 33.564H296.333V35.082H297.499V35.951H296.333V39.328C296.333 39.933 296.432 40.087 297.004 40.087H297.488V41H296.652C295.453 41 295.189 40.703 295.189 39.482V35.951H294.287V35.082H295.189V33.564ZM298.258 39.405C298.258 37.964 299.952 37.579 302.251 37.337V37.216C302.251 36.171 301.701 35.819 300.975 35.819C300.183 35.819 299.732 36.226 299.688 36.952H298.533C298.632 35.698 299.666 34.939 301.019 34.939C302.548 34.939 303.428 35.676 303.406 37.447C303.406 37.59 303.384 38.613 303.384 38.866C303.384 39.746 303.439 40.472 303.549 41H302.449C302.405 40.769 302.372 40.593 302.35 40.219C301.998 40.813 301.327 41.143 300.37 41.143C299.171 41.143 298.258 40.483 298.258 39.405ZM302.306 38.184C300.469 38.36 299.501 38.613 299.501 39.383C299.501 39.922 299.93 40.263 300.623 40.263C301.569 40.263 302.306 39.79 302.306 38.613V38.184ZM307.606 34.686C307.606 33.377 307.991 33.025 309.377 33.025H309.894V33.938H309.454C308.871 33.938 308.75 34.059 308.75 34.675V35.082H309.894V35.951H308.75V41H307.606V35.951H306.781V35.082H307.606V34.686ZM312.043 33.025V34.29H310.899V33.025H312.043ZM312.043 35.082V41H310.899V35.082H312.043ZM314.729 41H313.585V33.025H314.729V41ZM320.318 39.262H321.473C321.198 40.241 320.318 41.143 318.811 41.143C316.897 41.143 315.863 39.746 315.863 38.03C315.863 36.193 317.095 34.972 318.778 34.972C320.604 34.972 321.671 36.468 321.55 38.393H317.04C317.15 39.482 317.843 40.164 318.767 40.164C319.592 40.164 320.076 39.823 320.318 39.262ZM317.062 37.491H320.362C320.329 36.611 319.713 35.907 318.767 35.907C317.876 35.907 317.216 36.369 317.062 37.491Z" fill="#666666"/>
<rect x="273.5" y="55" width="30" height="30" rx="15" fill="#99D8FF"/>
<path d="M286.121 69.232C285.956 68.627 285.45 68.385 284.779 68.385C284.218 68.385 283.613 68.616 283.613 69.1C283.613 69.54 283.899 69.727 284.438 69.837L285.285 70.002C286.407 70.222 287.386 70.607 287.386 71.762C287.386 72.961 286.264 73.643 284.9 73.643C283.404 73.643 282.491 72.774 282.348 71.663H283.514C283.668 72.334 284.108 72.73 284.933 72.73C285.67 72.73 286.242 72.422 286.242 71.894C286.242 71.344 285.725 71.124 285.109 71.003L284.218 70.827C283.327 70.651 282.491 70.255 282.491 69.144C282.491 68.099 283.591 67.461 284.889 67.461C286.077 67.461 287.034 68.088 287.254 69.232H286.121ZM288.248 69.507C288.248 67.021 289.26 65.382 291.383 65.382C293.517 65.382 294.518 67.021 294.518 69.507C294.518 72.004 293.517 73.643 291.383 73.643C289.26 73.643 288.248 72.004 288.248 69.507ZM293.308 69.507C293.308 67.395 292.593 66.295 291.383 66.295C290.184 66.295 289.458 67.395 289.458 69.507C289.458 71.63 290.184 72.719 291.383 72.719C292.593 72.719 293.308 71.63 293.308 69.507Z" fill="#0D0D0D"/>
<path d="M534 20.5H631C636.247 20.5 640.5 24.7533 640.5 30V85C640.5 90.2467 636.247 94.5 631 94.5H534C528.753 94.5 524.5 90.2467 524.5 85V30C524.5 24.7533 528.753 20.5 534 20.5Z" fill="#F5FBFF"/>
<path d="M534 20.5H631C636.247 20.5 640.5 24.7533 640.5 30V85C640.5 90.2467 636.247 94.5 631 94.5H534C528.753 94.5 524.5 90.2467 524.5 85V30C524.5 24.7533 528.753 20.5 534 20.5Z" stroke="#99D8FF"/>
<path d="M551.011 41H549.867V35.082H551.011V35.94C551.352 35.357 551.913 34.972 552.76 34.972C553.673 34.972 554.212 35.357 554.476 36.017C554.971 35.28 555.664 34.972 556.434 34.972C557.82 34.972 558.359 35.896 558.359 37.271V41H557.215V37.579C557.215 36.721 557.083 35.929 556.049 35.929C555.147 35.929 554.685 36.644 554.685 37.821V41H553.541V37.579C553.541 36.721 553.409 35.929 552.375 35.929C551.462 35.929 551.011 36.644 551.011 37.821V41ZM563.852 39.262H565.007C564.732 40.241 563.852 41.143 562.345 41.143C560.431 41.143 559.397 39.746 559.397 38.03C559.397 36.193 560.629 34.972 562.312 34.972C564.138 34.972 565.205 36.468 565.084 38.393H560.574C560.684 39.482 561.377 40.164 562.301 40.164C563.126 40.164 563.61 39.823 563.852 39.262ZM560.596 37.491H563.896C563.863 36.611 563.247 35.907 562.301 35.907C561.41 35.907 560.75 36.369 560.596 37.491ZM566.437 33.564H567.581V35.082H568.747V35.951H567.581V39.328C567.581 39.933 567.68 40.087 568.252 40.087H568.736V41H567.9C566.701 41 566.437 40.703 566.437 39.482V35.951H565.535V35.082H566.437V33.564ZM569.506 39.405C569.506 37.964 571.2 37.579 573.499 37.337V37.216C573.499 36.171 572.949 35.819 572.223 35.819C571.431 35.819 570.98 36.226 570.936 36.952H569.781C569.88 35.698 570.914 34.939 572.267 34.939C573.796 34.939 574.676 35.676 574.654 37.447C574.654 37.59 574.632 38.613 574.632 38.866C574.632 39.746 574.687 40.472 574.797 41H573.697C573.653 40.769 573.62 40.593 573.598 40.219C573.246 40.813 572.575 41.143 571.618 41.143C570.419 41.143 569.506 40.483 569.506 39.405ZM573.554 38.184C571.717 38.36 570.749 38.613 570.749 39.383C570.749 39.922 571.178 40.263 571.871 40.263C572.817 40.263 573.554 39.79 573.554 38.613V38.184ZM580.06 33.025H581.204V41H580.06V40.164C579.697 40.769 579.081 41.143 578.212 41.143C576.837 41.143 575.66 39.988 575.66 38.052C575.66 36.127 576.837 34.972 578.212 34.972C579.081 34.972 579.697 35.346 580.06 35.951V33.025ZM578.476 35.929C577.53 35.929 576.881 36.721 576.881 38.052C576.881 39.383 577.53 40.186 578.476 40.186C579.356 40.186 580.104 39.515 580.104 38.052C580.104 36.589 579.356 35.929 578.476 35.929ZM582.397 39.405C582.397 37.964 584.091 37.579 586.39 37.337V37.216C586.39 36.171 585.84 35.819 585.114 35.819C584.322 35.819 583.871 36.226 583.827 36.952H582.672C582.771 35.698 583.805 34.939 585.158 34.939C586.687 34.939 587.567 35.676 587.545 37.447C587.545 37.59 587.523 38.613 587.523 38.866C587.523 39.746 587.578 40.472 587.688 41H586.588C586.544 40.769 586.511 40.593 586.489 40.219C586.137 40.813 585.466 41.143 584.509 41.143C583.31 41.143 582.397 40.483 582.397 39.405ZM586.445 38.184C584.608 38.36 583.64 38.613 583.64 39.383C583.64 39.922 584.069 40.263 584.762 40.263C585.708 40.263 586.445 39.79 586.445 38.613V38.184ZM589.189 33.564H590.333V35.082H591.499V35.951H590.333V39.328C590.333 39.933 590.432 40.087 591.004 40.087H591.488V41H590.652C589.453 41 589.189 40.703 589.189 39.482V35.951H588.287V35.082H589.189V33.564ZM592.258 39.405C592.258 37.964 593.952 37.579 596.251 37.337V37.216C596.251 36.171 595.701 35.819 594.975 35.819C594.183 35.819 593.732 36.226 593.688 36.952H592.533C592.632 35.698 593.666 34.939 595.019 34.939C596.548 34.939 597.428 35.676 597.406 37.447C597.406 37.59 597.384 38.613 597.384 38.866C597.384 39.746 597.439 40.472 597.549 41H596.449C596.405 40.769 596.372 40.593 596.35 40.219C595.998 40.813 595.327 41.143 594.37 41.143C593.171 41.143 592.258 40.483 592.258 39.405ZM596.306 38.184C594.469 38.36 593.501 38.613 593.501 39.383C593.501 39.922 593.93 40.263 594.623 40.263C595.569 40.263 596.306 39.79 596.306 38.613V38.184ZM601.606 34.686C601.606 33.377 601.991 33.025 603.377 33.025H603.894V33.938H603.454C602.871 33.938 602.75 34.059 602.75 34.675V35.082H603.894V35.951H602.75V41H601.606V35.951H600.781V35.082H601.606V34.686ZM606.043 33.025V34.29H604.899V33.025H606.043ZM606.043 35.082V41H604.899V35.082H606.043ZM608.729 41H607.585V33.025H608.729V41ZM614.318 39.262H615.473C615.198 40.241 614.318 41.143 612.811 41.143C610.897 41.143 609.863 39.746 609.863 38.03C609.863 36.193 611.095 34.972 612.778 34.972C614.604 34.972 615.671 36.468 615.55 38.393H611.04C611.15 39.482 611.843 40.164 612.767 40.164C613.592 40.164 614.076 39.823 614.318 39.262ZM611.062 37.491H614.362C614.329 36.611 613.713 35.907 612.767 35.907C611.876 35.907 611.216 36.369 611.062 37.491Z" fill="#666666"/>
<rect x="547.5" y="55" width="30" height="30" rx="15" fill="#99D8FF"/>
<path d="M560.121 69.232C559.956 68.627 559.45 68.385 558.779 68.385C558.218 68.385 557.613 68.616 557.613 69.1C557.613 69.54 557.899 69.727 558.438 69.837L559.285 70.002C560.407 70.222 561.386 70.607 561.386 71.762C561.386 72.961 560.264 73.643 558.9 73.643C557.404 73.643 556.491 72.774 556.348 71.663H557.514C557.668 72.334 558.108 72.73 558.933 72.73C559.67 72.73 560.242 72.422 560.242 71.894C560.242 71.344 559.725 71.124 559.109 71.003L558.218 70.827C557.327 70.651 556.491 70.255 556.491 69.144C556.491 68.099 557.591 67.461 558.889 67.461C560.077 67.461 561.034 68.088 561.254 69.232H560.121ZM562.248 69.507C562.248 67.021 563.26 65.382 565.383 65.382C567.517 65.382 568.518 67.021 568.518 69.507C568.518 72.004 567.517 73.643 565.383 73.643C563.26 73.643 562.248 72.004 562.248 69.507ZM567.308 69.507C567.308 67.395 566.593 66.295 565.383 66.295C564.184 66.295 563.458 67.395 563.458 69.507C563.458 71.63 564.184 72.719 565.383 72.719C566.593 72.719 567.308 71.63 567.308 69.507Z" fill="#0D0D0D"/>
<rect x="587.5" y="55" width="30" height="30" rx="15" fill="#99D8FF"/>
<path d="M601.754 69.232C601.589 68.627 601.083 68.385 600.412 68.385C599.851 68.385 599.246 68.616 599.246 69.1C599.246 69.54 599.532 69.727 600.071 69.837L600.918 70.002C602.04 70.222 603.019 70.607 603.019 71.762C603.019 72.961 601.897 73.643 600.533 73.643C599.037 73.643 598.124 72.774 597.981 71.663H599.147C599.301 72.334 599.741 72.73 600.566 72.73C601.303 72.73 601.875 72.422 601.875 71.894C601.875 71.344 601.358 71.124 600.742 71.003L599.851 70.827C598.96 70.651 598.124 70.255 598.124 69.144C598.124 68.099 599.224 67.461 600.522 67.461C601.71 67.461 602.667 68.088 602.887 69.232H601.754ZM605.278 73.5V67.34H603.463V66.559C604.618 66.515 605.19 66.394 605.608 65.525H606.433V73.5H605.278Z" fill="#0D0D0D"/>
<path d="M240 125.5H337C342.247 125.5 346.5 129.753 346.5 135V150C346.5 155.247 342.247 159.5 337 159.5H240C234.753 159.5 230.5 155.247 230.5 150V135C230.5 129.753 234.753 125.5 240 125.5Z" fill="#F5FBFF"/>
<path d="M240 125.5H337C342.247 125.5 346.5 129.753 346.5 135V150C346.5 155.247 342.247 159.5 337 159.5H240C234.753 159.5 230.5 155.247 230.5 150V135C230.5 129.753 234.753 125.5 240 125.5Z" stroke="#99D8FF"/>
<path d="M259.477 146H258.333V140.082H259.477V140.94C259.818 140.357 260.379 139.972 261.226 139.972C262.139 139.972 262.678 140.357 262.942 141.017C263.437 140.28 264.13 139.972 264.9 139.972C266.286 139.972 266.825 140.896 266.825 142.271V146H265.681V142.579C265.681 141.721 265.549 140.929 264.515 140.929C263.613 140.929 263.151 141.644 263.151 142.821V146H262.007V142.579C262.007 141.721 261.875 140.929 260.841 140.929C259.928 140.929 259.477 141.644 259.477 142.821V146ZM267.917 144.405C267.917 142.964 269.611 142.579 271.91 142.337V142.216C271.91 141.171 271.36 140.819 270.634 140.819C269.842 140.819 269.391 141.226 269.347 141.952H268.192C268.291 140.698 269.325 139.939 270.678 139.939C272.207 139.939 273.087 140.676 273.065 142.447C273.065 142.59 273.043 143.613 273.043 143.866C273.043 144.746 273.098 145.472 273.208 146H272.108C272.064 145.769 272.031 145.593 272.009 145.219C271.657 145.813 270.986 146.143 270.029 146.143C268.83 146.143 267.917 145.483 267.917 144.405ZM271.965 143.184C270.128 143.36 269.16 143.613 269.16 144.383C269.16 144.922 269.589 145.263 270.282 145.263C271.228 145.263 271.965 144.79 271.965 143.613V143.184ZM275.622 140.94C275.963 140.357 276.557 139.972 277.481 139.972C278.911 139.972 279.461 140.896 279.461 142.271V146H278.317V142.579C278.317 141.721 278.174 140.929 277.096 140.929C276.106 140.929 275.622 141.644 275.622 142.821V146H274.478V140.082H275.622V140.94ZM282.035 138.025V139.29H280.891V138.025H282.035ZM282.035 140.082V146H280.891V140.082H282.035ZM283.786 139.686C283.786 138.377 284.171 138.025 285.557 138.025H286.074V138.938H285.634C285.051 138.938 284.93 139.059 284.93 139.675V140.082H286.074V140.951H284.93V146H283.786V140.951H282.961V140.082H283.786V139.686ZM291.019 144.262H292.174C291.899 145.241 291.019 146.143 289.512 146.143C287.598 146.143 286.564 144.746 286.564 143.03C286.564 141.193 287.796 139.972 289.479 139.972C291.305 139.972 292.372 141.468 292.251 143.393H287.741C287.851 144.482 288.544 145.164 289.468 145.164C290.293 145.164 290.777 144.823 291.019 144.262ZM287.763 142.491H291.063C291.03 141.611 290.414 140.907 289.468 140.907C288.577 140.907 287.917 141.369 287.763 142.491ZM296.761 141.732C296.596 141.127 296.09 140.885 295.419 140.885C294.858 140.885 294.253 141.116 294.253 141.6C294.253 142.04 294.539 142.227 295.078 142.337L295.925 142.502C297.047 142.722 298.026 143.107 298.026 144.262C298.026 145.461 296.904 146.143 295.54 146.143C294.044 146.143 293.131 145.274 292.988 144.163H294.154C294.308 144.834 294.748 145.23 295.573 145.23C296.31 145.23 296.882 144.922 296.882 144.394C296.882 143.844 296.365 143.624 295.749 143.503L294.858 143.327C293.967 143.151 293.131 142.755 293.131 141.644C293.131 140.599 294.231 139.961 295.529 139.961C296.717 139.961 297.674 140.588 297.894 141.732H296.761ZM299.405 138.564H300.549V140.082H301.715V140.951H300.549V144.328C300.549 144.933 300.648 145.087 301.22 145.087H301.704V146H300.868C299.669 146 299.405 145.703 299.405 144.482V140.951H298.503V140.082H299.405V138.564ZM306.549 146H305.405V138.025H306.549V146ZM309.234 138.025V139.29H308.09V138.025H309.234ZM309.234 140.082V146H308.09V140.082H309.234ZM314.142 141.732C313.977 141.127 313.471 140.885 312.8 140.885C312.239 140.885 311.634 141.116 311.634 141.6C311.634 142.04 311.92 142.227 312.459 142.337L313.306 142.502C314.428 142.722 315.407 143.107 315.407 144.262C315.407 145.461 314.285 146.143 312.921 146.143C311.425 146.143 310.512 145.274 310.369 144.163H311.535C311.689 144.834 312.129 145.23 312.954 145.23C313.691 145.23 314.263 144.922 314.263 144.394C314.263 143.844 313.746 143.624 313.13 143.503L312.239 143.327C311.348 143.151 310.512 142.755 310.512 141.644C310.512 140.599 311.612 139.961 312.91 139.961C314.098 139.961 315.055 140.588 315.275 141.732H314.142ZM316.786 138.564H317.93V140.082H319.096V140.951H317.93V144.328C317.93 144.933 318.029 145.087 318.601 145.087H319.085V146H318.249C317.05 146 316.786 145.703 316.786 144.482V140.951H315.884V140.082H316.786V138.564Z" fill="#666666"/>
<path d="M534 125.5H631C636.247 125.5 640.5 129.753 640.5 135V150C640.5 155.247 636.247 159.5 631 159.5H534C528.753 159.5 524.5 155.247 524.5 150V135C524.5 129.753 528.753 125.5 534 125.5Z" fill="#F5FBFF"/>
<path d="M534 125.5H631C636.247 125.5 640.5 129.753 640.5 135V150C640.5 155.247 636.247 159.5 631 159.5H534C528.753 159.5 524.5 155.247 524.5 150V135C524.5 129.753 528.753 125.5 534 125.5Z" stroke="#99D8FF"/>
<path d="M553.477 146H552.333V140.082H553.477V140.94C553.818 140.357 554.379 139.972 555.226 139.972C556.139 139.972 556.678 140.357 556.942 141.017C557.437 140.28 558.13 139.972 558.9 139.972C560.286 139.972 560.825 140.896 560.825 142.271V146H559.681V142.579C559.681 141.721 559.549 140.929 558.515 140.929C557.613 140.929 557.151 141.644 557.151 142.821V146H556.007V142.579C556.007 141.721 555.875 140.929 554.841 140.929C553.928 140.929 553.477 141.644 553.477 142.821V146ZM561.917 144.405C561.917 142.964 563.611 142.579 565.91 142.337V142.216C565.91 141.171 565.36 140.819 564.634 140.819C563.842 140.819 563.391 141.226 563.347 141.952H562.192C562.291 140.698 563.325 139.939 564.678 139.939C566.207 139.939 567.087 140.676 567.065 142.447C567.065 142.59 567.043 143.613 567.043 143.866C567.043 144.746 567.098 145.472 567.208 146H566.108C566.064 145.769 566.031 145.593 566.009 145.219C565.657 145.813 564.986 146.143 564.029 146.143C562.83 146.143 561.917 145.483 561.917 144.405ZM565.965 143.184C564.128 143.36 563.16 143.613 563.16 144.383C563.16 144.922 563.589 145.263 564.282 145.263C565.228 145.263 565.965 144.79 565.965 143.613V143.184ZM569.622 140.94C569.963 140.357 570.557 139.972 571.481 139.972C572.911 139.972 573.461 140.896 573.461 142.271V146H572.317V142.579C572.317 141.721 572.174 140.929 571.096 140.929C570.106 140.929 569.622 141.644 569.622 142.821V146H568.478V140.082H569.622V140.94ZM576.035 138.025V139.29H574.891V138.025H576.035ZM576.035 140.082V146H574.891V140.082H576.035ZM577.786 139.686C577.786 138.377 578.171 138.025 579.557 138.025H580.074V138.938H579.634C579.051 138.938 578.93 139.059 578.93 139.675V140.082H580.074V140.951H578.93V146H577.786V140.951H576.961V140.082H577.786V139.686ZM585.019 144.262H586.174C585.899 145.241 585.019 146.143 583.512 146.143C581.598 146.143 580.564 144.746 580.564 143.03C580.564 141.193 581.796 139.972 583.479 139.972C585.305 139.972 586.372 141.468 586.251 143.393H581.741C581.851 144.482 582.544 145.164 583.468 145.164C584.293 145.164 584.777 144.823 585.019 144.262ZM581.763 142.491H585.063C585.03 141.611 584.414 140.907 583.468 140.907C582.577 140.907 581.917 141.369 581.763 142.491ZM590.761 141.732C590.596 141.127 590.09 140.885 589.419 140.885C588.858 140.885 588.253 141.116 588.253 141.6C588.253 142.04 588.539 142.227 589.078 142.337L589.925 142.502C591.047 142.722 592.026 143.107 592.026 144.262C592.026 145.461 590.904 146.143 589.54 146.143C588.044 146.143 587.131 145.274 586.988 144.163H588.154C588.308 144.834 588.748 145.23 589.573 145.23C590.31 145.23 590.882 144.922 590.882 144.394C590.882 143.844 590.365 143.624 589.749 143.503L588.858 143.327C587.967 143.151 587.131 142.755 587.131 141.644C587.131 140.599 588.231 139.961 589.529 139.961C590.717 139.961 591.674 140.588 591.894 141.732H590.761ZM593.405 138.564H594.549V140.082H595.715V140.951H594.549V144.328C594.549 144.933 594.648 145.087 595.22 145.087H595.704V146H594.868C593.669 146 593.405 145.703 593.405 144.482V140.951H592.503V140.082H593.405V138.564ZM600.549 146H599.405V138.025H600.549V146ZM603.234 138.025V139.29H602.09V138.025H603.234ZM603.234 140.082V146H602.09V140.082H603.234ZM608.142 141.732C607.977 141.127 607.471 140.885 606.8 140.885C606.239 140.885 605.634 141.116 605.634 141.6C605.634 142.04 605.92 142.227 606.459 142.337L607.306 142.502C608.428 142.722 609.407 143.107 609.407 144.262C609.407 145.461 608.285 146.143 606.921 146.143C605.425 146.143 604.512 145.274 604.369 144.163H605.535C605.689 144.834 606.129 145.23 606.954 145.23C607.691 145.23 608.263 144.922 608.263 144.394C608.263 143.844 607.746 143.624 607.13 143.503L606.239 143.327C605.348 143.151 604.512 142.755 604.512 141.644C604.512 140.599 605.612 139.961 606.91 139.961C608.098 139.961 609.055 140.588 609.275 141.732H608.142ZM610.786 138.564H611.93V140.082H613.096V140.951H611.93V144.328C611.93 144.933 612.029 145.087 612.601 145.087H613.085V146H612.249C611.05 146 610.786 145.703 610.786 144.482V140.951H609.884V140.082H610.786V138.564Z" fill="#666666"/>
<path d="M240 190.5H337C342.247 190.5 346.5 194.753 346.5 200V215C346.5 220.247 342.247 224.5 337 224.5H240C234.753 224.5 230.5 220.247 230.5 215V200C230.5 194.753 234.753 190.5 240 190.5Z" fill="#F5FBFF"/>
<path d="M240 190.5H337C342.247 190.5 346.5 194.753 346.5 200V215C346.5 220.247 342.247 224.5 337 224.5H240C234.753 224.5 230.5 220.247 230.5 215V200C230.5 194.753 234.753 190.5 240 190.5Z" stroke="#99D8FF"/>
<path d="M259.24 211H258.096V205.082H259.24V205.94C259.581 205.357 260.142 204.972 260.989 204.972C261.902 204.972 262.441 205.357 262.705 206.017C263.2 205.28 263.893 204.972 264.663 204.972C266.049 204.972 266.588 205.896 266.588 207.271V211H265.444V207.579C265.444 206.721 265.312 205.929 264.278 205.929C263.376 205.929 262.914 206.644 262.914 207.821V211H261.77V207.579C261.77 206.721 261.638 205.929 260.604 205.929C259.691 205.929 259.24 206.644 259.24 207.821V211ZM267.681 209.405C267.681 207.964 269.375 207.579 271.674 207.337V207.216C271.674 206.171 271.124 205.819 270.398 205.819C269.606 205.819 269.155 206.226 269.111 206.952H267.956C268.055 205.698 269.089 204.939 270.442 204.939C271.971 204.939 272.851 205.676 272.829 207.447C272.829 207.59 272.807 208.613 272.807 208.866C272.807 209.746 272.862 210.472 272.972 211H271.872C271.828 210.769 271.795 210.593 271.773 210.219C271.421 210.813 270.75 211.143 269.793 211.143C268.594 211.143 267.681 210.483 267.681 209.405ZM271.729 208.184C269.892 208.36 268.924 208.613 268.924 209.383C268.924 209.922 269.353 210.263 270.046 210.263C270.992 210.263 271.729 209.79 271.729 208.613V208.184ZM275.386 205.94C275.727 205.357 276.321 204.972 277.245 204.972C278.675 204.972 279.225 205.896 279.225 207.271V211H278.081V207.579C278.081 206.721 277.938 205.929 276.86 205.929C275.87 205.929 275.386 206.644 275.386 207.821V211H274.242V205.082H275.386V205.94ZM281.799 203.025V204.29H280.655V203.025H281.799ZM281.799 205.082V211H280.655V205.082H281.799ZM283.549 204.686C283.549 203.377 283.934 203.025 285.32 203.025H285.837V203.938H285.397C284.814 203.938 284.693 204.059 284.693 204.675V205.082H285.837V205.951H284.693V211H283.549V205.951H282.724V205.082H283.549V204.686ZM290.783 209.262H291.938C291.663 210.241 290.783 211.143 289.276 211.143C287.362 211.143 286.328 209.746 286.328 208.03C286.328 206.193 287.56 204.972 289.243 204.972C291.069 204.972 292.136 206.468 292.015 208.393H287.505C287.615 209.482 288.308 210.164 289.232 210.164C290.057 210.164 290.541 209.823 290.783 209.262ZM287.527 207.491H290.827C290.794 206.611 290.178 205.907 289.232 205.907C288.341 205.907 287.681 206.369 287.527 207.491ZM296.525 206.732C296.36 206.127 295.854 205.885 295.183 205.885C294.622 205.885 294.017 206.116 294.017 206.6C294.017 207.04 294.303 207.227 294.842 207.337L295.689 207.502C296.811 207.722 297.79 208.107 297.79 209.262C297.79 210.461 296.668 211.143 295.304 211.143C293.808 211.143 292.895 210.274 292.752 209.163H293.918C294.072 209.834 294.512 210.23 295.337 210.23C296.074 210.23 296.646 209.922 296.646 209.394C296.646 208.844 296.129 208.624 295.513 208.503L294.622 208.327C293.731 208.151 292.895 207.755 292.895 206.644C292.895 205.599 293.995 204.961 295.293 204.961C296.481 204.961 297.438 205.588 297.658 206.732H296.525ZM299.169 203.564H300.313V205.082H301.479V205.951H300.313V209.328C300.313 209.933 300.412 210.087 300.984 210.087H301.468V211H300.632C299.433 211 299.169 210.703 299.169 209.482V205.951H298.267V205.082H299.169V203.564ZM305.377 204.686C305.377 203.377 305.762 203.025 307.148 203.025H307.665V203.938H307.225C306.642 203.938 306.521 204.059 306.521 204.675V205.082H307.665V205.951H306.521V211H305.377V205.951H304.552V205.082H305.377V204.686ZM309.814 203.025V204.29H308.67V203.025H309.814ZM309.814 205.082V211H308.67V205.082H309.814ZM312.5 211H311.356V203.025H312.5V211ZM318.089 209.262H319.244C318.969 210.241 318.089 211.143 316.582 211.143C314.668 211.143 313.634 209.746 313.634 208.03C313.634 206.193 314.866 204.972 316.549 204.972C318.375 204.972 319.442 206.468 319.321 208.393H314.811C314.921 209.482 315.614 210.164 316.538 210.164C317.363 210.164 317.847 209.823 318.089 209.262ZM314.833 207.491H318.133C318.1 206.611 317.484 205.907 316.538 205.907C315.647 205.907 314.987 206.369 314.833 207.491Z" fill="#666666"/>
<path d="M387 190.5H484C489.247 190.5 493.5 194.753 493.5 200V215C493.5 220.247 489.247 224.5 484 224.5H387C381.753 224.5 377.5 220.247 377.5 215V200C377.5 194.753 381.753 190.5 387 190.5Z" fill="#F5FBFF"/>
<path d="M387 190.5H484C489.247 190.5 493.5 194.753 493.5 200V215C493.5 220.247 489.247 224.5 484 224.5H387C381.753 224.5 377.5 220.247 377.5 215V200C377.5 194.753 381.753 190.5 387 190.5Z" stroke="#99D8FF"/>
<path d="M406.24 211H405.096V205.082H406.24V205.94C406.581 205.357 407.142 204.972 407.989 204.972C408.902 204.972 409.441 205.357 409.705 206.017C410.2 205.28 410.893 204.972 411.663 204.972C413.049 204.972 413.588 205.896 413.588 207.271V211H412.444V207.579C412.444 206.721 412.312 205.929 411.278 205.929C410.376 205.929 409.914 206.644 409.914 207.821V211H408.77V207.579C408.77 206.721 408.638 205.929 407.604 205.929C406.691 205.929 406.24 206.644 406.24 207.821V211ZM414.681 209.405C414.681 207.964 416.375 207.579 418.674 207.337V207.216C418.674 206.171 418.124 205.819 417.398 205.819C416.606 205.819 416.155 206.226 416.111 206.952H414.956C415.055 205.698 416.089 204.939 417.442 204.939C418.971 204.939 419.851 205.676 419.829 207.447C419.829 207.59 419.807 208.613 419.807 208.866C419.807 209.746 419.862 210.472 419.972 211H418.872C418.828 210.769 418.795 210.593 418.773 210.219C418.421 210.813 417.75 211.143 416.793 211.143C415.594 211.143 414.681 210.483 414.681 209.405ZM418.729 208.184C416.892 208.36 415.924 208.613 415.924 209.383C415.924 209.922 416.353 210.263 417.046 210.263C417.992 210.263 418.729 209.79 418.729 208.613V208.184ZM422.386 205.94C422.727 205.357 423.321 204.972 424.245 204.972C425.675 204.972 426.225 205.896 426.225 207.271V211H425.081V207.579C425.081 206.721 424.938 205.929 423.86 205.929C422.87 205.929 422.386 206.644 422.386 207.821V211H421.242V205.082H422.386V205.94ZM428.799 203.025V204.29H427.655V203.025H428.799ZM428.799 205.082V211H427.655V205.082H428.799ZM430.549 204.686C430.549 203.377 430.934 203.025 432.32 203.025H432.837V203.938H432.397C431.814 203.938 431.693 204.059 431.693 204.675V205.082H432.837V205.951H431.693V211H430.549V205.951H429.724V205.082H430.549V204.686ZM437.783 209.262H438.938C438.663 210.241 437.783 211.143 436.276 211.143C434.362 211.143 433.328 209.746 433.328 208.03C433.328 206.193 434.56 204.972 436.243 204.972C438.069 204.972 439.136 206.468 439.015 208.393H434.505C434.615 209.482 435.308 210.164 436.232 210.164C437.057 210.164 437.541 209.823 437.783 209.262ZM434.527 207.491H437.827C437.794 206.611 437.178 205.907 436.232 205.907C435.341 205.907 434.681 206.369 434.527 207.491ZM443.525 206.732C443.36 206.127 442.854 205.885 442.183 205.885C441.622 205.885 441.017 206.116 441.017 206.6C441.017 207.04 441.303 207.227 441.842 207.337L442.689 207.502C443.811 207.722 444.79 208.107 444.79 209.262C444.79 210.461 443.668 211.143 442.304 211.143C440.808 211.143 439.895 210.274 439.752 209.163H440.918C441.072 209.834 441.512 210.23 442.337 210.23C443.074 210.23 443.646 209.922 443.646 209.394C443.646 208.844 443.129 208.624 442.513 208.503L441.622 208.327C440.731 208.151 439.895 207.755 439.895 206.644C439.895 205.599 440.995 204.961 442.293 204.961C443.481 204.961 444.438 205.588 444.658 206.732H443.525ZM446.169 203.564H447.313V205.082H448.479V205.951H447.313V209.328C447.313 209.933 447.412 210.087 447.984 210.087H448.468V211H447.632C446.433 211 446.169 210.703 446.169 209.482V205.951H445.267V205.082H446.169V203.564ZM452.377 204.686C452.377 203.377 452.762 203.025 454.148 203.025H454.665V203.938H454.225C453.642 203.938 453.521 204.059 453.521 204.675V205.082H454.665V205.951H453.521V211H452.377V205.951H451.552V205.082H452.377V204.686ZM456.814 203.025V204.29H455.67V203.025H456.814ZM456.814 205.082V211H455.67V205.082H456.814ZM459.5 211H458.356V203.025H459.5V211ZM465.089 209.262H466.244C465.969 210.241 465.089 211.143 463.582 211.143C461.668 211.143 460.634 209.746 460.634 208.03C460.634 206.193 461.866 204.972 463.549 204.972C465.375 204.972 466.442 206.468 466.321 208.393H461.811C461.921 209.482 462.614 210.164 463.538 210.164C464.363 210.164 464.847 209.823 465.089 209.262ZM461.833 207.491H465.133C465.1 206.611 464.484 205.907 463.538 205.907C462.647 205.907 461.987 206.369 461.833 207.491Z" fill="#666666"/>
<path d="M534 190.5H631C636.247 190.5 640.5 194.753 640.5 200V215C640.5 220.247 636.247 224.5 631 224.5H534C528.753 224.5 524.5 220.247 524.5 215V200C524.5 194.753 528.753 190.5 534 190.5Z" fill="#F5FBFF"/>
<path d="M534 190.5H631C636.247 190.5 640.5 194.753 640.5 200V215C640.5 220.247 636.247 224.5 631 224.5H534C528.753 224.5 524.5 220.247 524.5 215V200C524.5 194.753 528.753 190.5 534 190.5Z" stroke="#99D8FF"/>
<path d="M553.24 211H552.096V205.082H553.24V205.94C553.581 205.357 554.142 204.972 554.989 204.972C555.902 204.972 556.441 205.357 556.705 206.017C557.2 205.28 557.893 204.972 558.663 204.972C560.049 204.972 560.588 205.896 560.588 207.271V211H559.444V207.579C559.444 206.721 559.312 205.929 558.278 205.929C557.376 205.929 556.914 206.644 556.914 207.821V211H555.77V207.579C555.77 206.721 555.638 205.929 554.604 205.929C553.691 205.929 553.24 206.644 553.24 207.821V211ZM561.681 209.405C561.681 207.964 563.375 207.579 565.674 207.337V207.216C565.674 206.171 565.124 205.819 564.398 205.819C563.606 205.819 563.155 206.226 563.111 206.952H561.956C562.055 205.698 563.089 204.939 564.442 204.939C565.971 204.939 566.851 205.676 566.829 207.447C566.829 207.59 566.807 208.613 566.807 208.866C566.807 209.746 566.862 210.472 566.972 211H565.872C565.828 210.769 565.795 210.593 565.773 210.219C565.421 210.813 564.75 211.143 563.793 211.143C562.594 211.143 561.681 210.483 561.681 209.405ZM565.729 208.184C563.892 208.36 562.924 208.613 562.924 209.383C562.924 209.922 563.353 210.263 564.046 210.263C564.992 210.263 565.729 209.79 565.729 208.613V208.184ZM569.386 205.94C569.727 205.357 570.321 204.972 571.245 204.972C572.675 204.972 573.225 205.896 573.225 207.271V211H572.081V207.579C572.081 206.721 571.938 205.929 570.86 205.929C569.87 205.929 569.386 206.644 569.386 207.821V211H568.242V205.082H569.386V205.94ZM575.799 203.025V204.29H574.655V203.025H575.799ZM575.799 205.082V211H574.655V205.082H575.799ZM577.549 204.686C577.549 203.377 577.934 203.025 579.32 203.025H579.837V203.938H579.397C578.814 203.938 578.693 204.059 578.693 204.675V205.082H579.837V205.951H578.693V211H577.549V205.951H576.724V205.082H577.549V204.686ZM584.783 209.262H585.938C585.663 210.241 584.783 211.143 583.276 211.143C581.362 211.143 580.328 209.746 580.328 208.03C580.328 206.193 581.56 204.972 583.243 204.972C585.069 204.972 586.136 206.468 586.015 208.393H581.505C581.615 209.482 582.308 210.164 583.232 210.164C584.057 210.164 584.541 209.823 584.783 209.262ZM581.527 207.491H584.827C584.794 206.611 584.178 205.907 583.232 205.907C582.341 205.907 581.681 206.369 581.527 207.491ZM590.525 206.732C590.36 206.127 589.854 205.885 589.183 205.885C588.622 205.885 588.017 206.116 588.017 206.6C588.017 207.04 588.303 207.227 588.842 207.337L589.689 207.502C590.811 207.722 591.79 208.107 591.79 209.262C591.79 210.461 590.668 211.143 589.304 211.143C587.808 211.143 586.895 210.274 586.752 209.163H587.918C588.072 209.834 588.512 210.23 589.337 210.23C590.074 210.23 590.646 209.922 590.646 209.394C590.646 208.844 590.129 208.624 589.513 208.503L588.622 208.327C587.731 208.151 586.895 207.755 586.895 206.644C586.895 205.599 587.995 204.961 589.293 204.961C590.481 204.961 591.438 205.588 591.658 206.732H590.525ZM593.169 203.564H594.313V205.082H595.479V205.951H594.313V209.328C594.313 209.933 594.412 210.087 594.984 210.087H595.468V211H594.632C593.433 211 593.169 210.703 593.169 209.482V205.951H592.267V205.082H593.169V203.564ZM599.377 204.686C599.377 203.377 599.762 203.025 601.148 203.025H601.665V203.938H601.225C600.642 203.938 600.521 204.059 600.521 204.675V205.082H601.665V205.951H600.521V211H599.377V205.951H598.552V205.082H599.377V204.686ZM603.814 203.025V204.29H602.67V203.025H603.814ZM603.814 205.082V211H602.67V205.082H603.814ZM606.5 211H605.356V203.025H606.5V211ZM612.089 209.262H613.244C612.969 210.241 612.089 211.143 610.582 211.143C608.668 211.143 607.634 209.746 607.634 208.03C607.634 206.193 608.866 204.972 610.549 204.972C612.375 204.972 613.442 206.468 613.321 208.393H608.811C608.921 209.482 609.614 210.164 610.538 210.164C611.363 210.164 611.847 209.823 612.089 209.262ZM608.833 207.491H612.133C612.1 206.611 611.484 205.907 610.538 205.907C609.647 205.907 608.987 206.369 608.833 207.491Z" fill="#666666"/>
<rect x="0.5" y="256.5" width="749" height="94" rx="11.5" fill="#CCEBFF" fill-opacity="0.6"/>
<rect x="0.5" y="256.5" width="749" height="94" rx="11.5" stroke="#99D8FF"/>
<path d="M28.56 287.192C28.56 283.72 26.496 283.192 24.384 283.192H23.328V291.208H24.384C26.496 291.208 28.56 290.696 28.56 287.192ZM21.04 281.4H24.48C28.16 281.4 30.928 282.584 30.928 287.192C30.928 291.8 28.16 293 24.48 293H21.04V281.4ZM37.618 289.704V289.064C35.138 289.32 34.162 289.608 34.162 290.568C34.162 291.192 34.642 291.704 35.65 291.704C37.042 291.704 37.618 290.968 37.618 289.704ZM37.81 291.928C37.186 292.824 36.29 293.208 34.994 293.208C33.346 293.208 31.89 292.248 31.89 290.68C31.89 288.648 34.162 288.04 37.554 287.656V287.512C37.554 286.184 36.834 285.72 35.938 285.72C35.09 285.72 34.386 286.152 34.338 287.112H32.274C32.45 285.416 33.826 284.168 36.05 284.168C38.082 284.168 39.762 285.064 39.762 287.96C39.762 288.216 39.73 289.384 39.73 290.152C39.73 291.512 39.81 292.28 39.986 293H37.954C37.89 292.728 37.858 292.36 37.81 291.928ZM41.9054 284.392V282.056H44.1134V284.392H45.9054V285.912H44.1134V290.36C44.1134 291.24 44.4174 291.416 45.2014 291.416H45.8734V293H44.2574C42.2734 293 41.9054 292.392 41.9054 290.68V285.912H40.6894V284.392H41.9054ZM52.6961 289.704V289.064C50.2161 289.32 49.2401 289.608 49.2401 290.568C49.2401 291.192 49.7201 291.704 50.7281 291.704C52.1201 291.704 52.6961 290.968 52.6961 289.704ZM52.8881 291.928C52.2641 292.824 51.3681 293.208 50.0721 293.208C48.4241 293.208 46.9681 292.248 46.9681 290.68C46.9681 288.648 49.2401 288.04 52.6321 287.656V287.512C52.6321 286.184 51.9121 285.72 51.0161 285.72C50.1681 285.72 49.4641 286.152 49.4161 287.112H47.3521C47.5281 285.416 48.9041 284.168 51.1281 284.168C53.1601 284.168 54.8401 285.064 54.8401 287.96C54.8401 288.216 54.8081 289.384 54.8081 290.152C54.8081 291.512 54.8881 292.28 55.0641 293H53.0321C52.9681 292.728 52.9361 292.36 52.8881 291.928ZM62.4969 281.4V293H60.2889V281.4H62.4969ZM69.8524 289.704V289.064C67.3724 289.32 66.3964 289.608 66.3964 290.568C66.3964 291.192 66.8764 291.704 67.8844 291.704C69.2764 291.704 69.8524 290.968 69.8524 289.704ZM70.0444 291.928C69.4204 292.824 68.5244 293.208 67.2284 293.208C65.5804 293.208 64.1244 292.248 64.1244 290.68C64.1244 288.648 66.3964 288.04 69.7884 287.656V287.512C69.7884 286.184 69.0684 285.72 68.1724 285.72C67.3244 285.72 66.6204 286.152 66.5724 287.112H64.5084C64.6844 285.416 66.0604 284.168 68.2844 284.168C70.3164 284.168 71.9964 285.064 71.9964 287.96C71.9964 288.216 71.9644 289.384 71.9644 290.152C71.9644 291.512 72.0444 292.28 72.2204 293H70.1884C70.1244 292.728 70.0924 292.36 70.0444 291.928ZM74.5435 295.8H73.6155V294.104H74.4475C75.1835 294.104 75.5035 294.12 75.8875 293.208L75.9835 292.968L72.6875 284.392H75.1035L77.0555 290.6L79.0555 284.392H81.2955L78.1435 292.744C77.1195 295.416 76.6875 295.8 74.5435 295.8ZM90.1166 289.304H83.7646C83.8926 290.776 84.8846 291.496 85.9406 291.496C86.6286 291.496 87.3006 291.256 87.7486 290.504H90.0206C89.5566 291.784 88.3086 293.208 85.9566 293.208C83.1886 293.208 81.5726 291.144 81.5726 288.664C81.5726 286.104 83.3486 284.2 85.8926 284.2C88.5486 284.2 90.1966 286.264 90.1166 289.304ZM85.8766 285.816C85.0446 285.816 83.9726 286.328 83.7966 287.784H87.8766C87.8286 286.328 86.8046 285.816 85.8766 285.816ZM96.4669 284.44V286.52C96.1469 286.472 95.8749 286.472 95.5549 286.472C94.4669 286.472 93.7469 286.872 93.7469 288.488V293H91.5389V284.392H93.7149V285.896C94.2109 284.824 94.9789 284.408 95.9869 284.408C96.1309 284.408 96.3229 284.424 96.4669 284.44Z" fill="#0D0D0D"/>
<path d="M260 276.5H307C312.247 276.5 316.5 280.753 316.5 286V301C316.5 306.247 312.247 310.5 307 310.5H260C254.753 310.5 250.5 306.247 250.5 301V286C250.5 280.753 254.753 276.5 260 276.5Z" fill="#F5FBFF"/>
<path d="M260 276.5H307C312.247 276.5 316.5 280.753 316.5 286V301C316.5 306.247 312.247 310.5 307 310.5H260C254.753 310.5 250.5 306.247 250.5 301V286C250.5 280.753 254.753 276.5 260 276.5Z" stroke="#99D8FF"/>
<path d="M265.06 289.025H266.204V297H265.06V296.164C264.697 296.769 264.081 297.143 263.212 297.143C261.837 297.143 260.66 295.988 260.66 294.052C260.66 292.127 261.837 290.972 263.212 290.972C264.081 290.972 264.697 291.346 265.06 291.951V289.025ZM263.476 291.929C262.53 291.929 261.881 292.721 261.881 294.052C261.881 295.383 262.53 296.186 263.476 296.186C264.356 296.186 265.104 295.515 265.104 294.052C265.104 292.589 264.356 291.929 263.476 291.929ZM267.397 295.405C267.397 293.964 269.091 293.579 271.39 293.337V293.216C271.39 292.171 270.84 291.819 270.114 291.819C269.322 291.819 268.871 292.226 268.827 292.952H267.672C267.771 291.698 268.805 290.939 270.158 290.939C271.687 290.939 272.567 291.676 272.545 293.447C272.545 293.59 272.523 294.613 272.523 294.866C272.523 295.746 272.578 296.472 272.688 297H271.588C271.544 296.769 271.511 296.593 271.489 296.219C271.137 296.813 270.466 297.143 269.509 297.143C268.31 297.143 267.397 296.483 267.397 295.405ZM271.445 294.184C269.608 294.36 268.64 294.613 268.64 295.383C268.64 295.922 269.069 296.263 269.762 296.263C270.708 296.263 271.445 295.79 271.445 294.613V294.184ZM274.189 289.564H275.333V291.082H276.499V291.951H275.333V295.328C275.333 295.933 275.432 296.087 276.004 296.087H276.488V297H275.652C274.453 297 274.189 296.703 274.189 295.482V291.951H273.287V291.082H274.189V289.564ZM277.258 295.405C277.258 293.964 278.952 293.579 281.251 293.337V293.216C281.251 292.171 280.701 291.819 279.975 291.819C279.183 291.819 278.732 292.226 278.688 292.952H277.533C277.632 291.698 278.666 290.939 280.019 290.939C281.548 290.939 282.428 291.676 282.406 293.447C282.406 293.59 282.384 294.613 282.384 294.866C282.384 295.746 282.439 296.472 282.549 297H281.449C281.405 296.769 281.372 296.593 281.35 296.219C280.998 296.813 280.327 297.143 279.37 297.143C278.171 297.143 277.258 296.483 277.258 295.405ZM281.306 294.184C279.469 294.36 278.501 294.613 278.501 295.383C278.501 295.922 278.93 296.263 279.623 296.263C280.569 296.263 281.306 295.79 281.306 294.613V294.184ZM286.606 290.686C286.606 289.377 286.991 289.025 288.377 289.025H288.894V289.938H288.454C287.871 289.938 287.75 290.059 287.75 290.675V291.082H288.894V291.951H287.75V297H286.606V291.951H285.781V291.082H286.606V290.686ZM291.043 289.025V290.29H289.899V289.025H291.043ZM291.043 291.082V297H289.899V291.082H291.043ZM293.728 297H292.584V289.025H293.728V297ZM299.318 295.262H300.473C300.198 296.241 299.318 297.143 297.811 297.143C295.897 297.143 294.863 295.746 294.863 294.03C294.863 292.193 296.095 290.972 297.778 290.972C299.604 290.972 300.671 292.468 300.55 294.393H296.04C296.15 295.482 296.843 296.164 297.767 296.164C298.592 296.164 299.076 295.823 299.318 295.262ZM296.062 293.491H299.362C299.329 292.611 298.713 291.907 297.767 291.907C296.876 291.907 296.216 292.369 296.062 293.491ZM305.06 292.732C304.895 292.127 304.389 291.885 303.718 291.885C303.157 291.885 302.552 292.116 302.552 292.6C302.552 293.04 302.838 293.227 303.377 293.337L304.224 293.502C305.346 293.722 306.325 294.107 306.325 295.262C306.325 296.461 305.203 297.143 303.839 297.143C302.343 297.143 301.43 296.274 301.287 295.163H302.453C302.607 295.834 303.047 296.23 303.872 296.23C304.609 296.23 305.181 295.922 305.181 295.394C305.181 294.844 304.664 294.624 304.048 294.503L303.157 294.327C302.266 294.151 301.43 293.755 301.43 292.644C301.43 291.599 302.53 290.961 303.828 290.961C305.016 290.961 305.973 291.588 306.193 292.732H305.06Z" fill="#666666"/>
<path d="M255 286.5H302C307.247 286.5 311.5 290.753 311.5 296V311C311.5 316.247 307.247 320.5 302 320.5H255C249.753 320.5 245.5 316.247 245.5 311V296C245.5 290.753 249.753 286.5 255 286.5Z" fill="#F5FBFF"/>
<path d="M255 286.5H302C307.247 286.5 311.5 290.753 311.5 296V311C311.5 316.247 307.247 320.5 302 320.5H255C249.753 320.5 245.5 316.247 245.5 311V296C245.5 290.753 249.753 286.5 255 286.5Z" stroke="#99D8FF"/>
<path d="M260.06 299.025H261.204V307H260.06V306.164C259.697 306.769 259.081 307.143 258.212 307.143C256.837 307.143 255.66 305.988 255.66 304.052C255.66 302.127 256.837 300.972 258.212 300.972C259.081 300.972 259.697 301.346 260.06 301.951V299.025ZM258.476 301.929C257.53 301.929 256.881 302.721 256.881 304.052C256.881 305.383 257.53 306.186 258.476 306.186C259.356 306.186 260.104 305.515 260.104 304.052C260.104 302.589 259.356 301.929 258.476 301.929ZM262.397 305.405C262.397 303.964 264.091 303.579 266.39 303.337V303.216C266.39 302.171 265.84 301.819 265.114 301.819C264.322 301.819 263.871 302.226 263.827 302.952H262.672C262.771 301.698 263.805 300.939 265.158 300.939C266.687 300.939 267.567 301.676 267.545 303.447C267.545 303.59 267.523 304.613 267.523 304.866C267.523 305.746 267.578 306.472 267.688 307H266.588C266.544 306.769 266.511 306.593 266.489 306.219C266.137 306.813 265.466 307.143 264.509 307.143C263.31 307.143 262.397 306.483 262.397 305.405ZM266.445 304.184C264.608 304.36 263.64 304.613 263.64 305.383C263.64 305.922 264.069 306.263 264.762 306.263C265.708 306.263 266.445 305.79 266.445 304.613V304.184ZM269.189 299.564H270.333V301.082H271.499V301.951H270.333V305.328C270.333 305.933 270.432 306.087 271.004 306.087H271.488V307H270.652C269.453 307 269.189 306.703 269.189 305.482V301.951H268.287V301.082H269.189V299.564ZM272.258 305.405C272.258 303.964 273.952 303.579 276.251 303.337V303.216C276.251 302.171 275.701 301.819 274.975 301.819C274.183 301.819 273.732 302.226 273.688 302.952H272.533C272.632 301.698 273.666 300.939 275.019 300.939C276.548 300.939 277.428 301.676 277.406 303.447C277.406 303.59 277.384 304.613 277.384 304.866C277.384 305.746 277.439 306.472 277.549 307H276.449C276.405 306.769 276.372 306.593 276.35 306.219C275.998 306.813 275.327 307.143 274.37 307.143C273.171 307.143 272.258 306.483 272.258 305.405ZM276.306 304.184C274.469 304.36 273.501 304.613 273.501 305.383C273.501 305.922 273.93 306.263 274.623 306.263C275.569 306.263 276.306 305.79 276.306 304.613V304.184ZM281.606 300.686C281.606 299.377 281.991 299.025 283.377 299.025H283.894V299.938H283.454C282.871 299.938 282.75 300.059 282.75 300.675V301.082H283.894V301.951H282.75V307H281.606V301.951H280.781V301.082H281.606V300.686ZM286.043 299.025V300.29H284.899V299.025H286.043ZM286.043 301.082V307H284.899V301.082H286.043ZM288.728 307H287.584V299.025H288.728V307ZM294.318 305.262H295.473C295.198 306.241 294.318 307.143 292.811 307.143C290.897 307.143 289.863 305.746 289.863 304.03C289.863 302.193 291.095 300.972 292.778 300.972C294.604 300.972 295.671 302.468 295.55 304.393H291.04C291.15 305.482 291.843 306.164 292.767 306.164C293.592 306.164 294.076 305.823 294.318 305.262ZM291.062 303.491H294.362C294.329 302.611 293.713 301.907 292.767 301.907C291.876 301.907 291.216 302.369 291.062 303.491ZM300.06 302.732C299.895 302.127 299.389 301.885 298.718 301.885C298.157 301.885 297.552 302.116 297.552 302.6C297.552 303.04 297.838 303.227 298.377 303.337L299.224 303.502C300.346 303.722 301.325 304.107 301.325 305.262C301.325 306.461 300.203 307.143 298.839 307.143C297.343 307.143 296.43 306.274 296.287 305.163H297.453C297.607 305.834 298.047 306.23 298.872 306.23C299.609 306.23 300.181 305.922 300.181 305.394C300.181 304.844 299.664 304.624 299.048 304.503L298.157 304.327C297.266 304.151 296.43 303.755 296.43 302.644C296.43 301.599 297.53 300.961 298.828 300.961C300.016 300.961 300.973 301.588 301.193 302.732H300.06Z" fill="#666666"/>
<path d="M250 296.5H297C302.247 296.5 306.5 300.753 306.5 306V321C306.5 326.247 302.247 330.5 297 330.5H250C244.753 330.5 240.5 326.247 240.5 321V306C240.5 300.753 244.753 296.5 250 296.5Z" fill="#F5FBFF"/>
<path d="M250 296.5H297C302.247 296.5 306.5 300.753 306.5 306V321C306.5 326.247 302.247 330.5 297 330.5H250C244.753 330.5 240.5 326.247 240.5 321V306C240.5 300.753 244.753 296.5 250 296.5Z" stroke="#99D8FF"/>
<path d="M255.06 309.025H256.204V317H255.06V316.164C254.697 316.769 254.081 317.143 253.212 317.143C251.837 317.143 250.66 315.988 250.66 314.052C250.66 312.127 251.837 310.972 253.212 310.972C254.081 310.972 254.697 311.346 255.06 311.951V309.025ZM253.476 311.929C252.53 311.929 251.881 312.721 251.881 314.052C251.881 315.383 252.53 316.186 253.476 316.186C254.356 316.186 255.104 315.515 255.104 314.052C255.104 312.589 254.356 311.929 253.476 311.929ZM257.397 315.405C257.397 313.964 259.091 313.579 261.39 313.337V313.216C261.39 312.171 260.84 311.819 260.114 311.819C259.322 311.819 258.871 312.226 258.827 312.952H257.672C257.771 311.698 258.805 310.939 260.158 310.939C261.687 310.939 262.567 311.676 262.545 313.447C262.545 313.59 262.523 314.613 262.523 314.866C262.523 315.746 262.578 316.472 262.688 317H261.588C261.544 316.769 261.511 316.593 261.489 316.219C261.137 316.813 260.466 317.143 259.509 317.143C258.31 317.143 257.397 316.483 257.397 315.405ZM261.445 314.184C259.608 314.36 258.64 314.613 258.64 315.383C258.64 315.922 259.069 316.263 259.762 316.263C260.708 316.263 261.445 315.79 261.445 314.613V314.184ZM264.189 309.564H265.333V311.082H266.499V311.951H265.333V315.328C265.333 315.933 265.432 316.087 266.004 316.087H266.488V317H265.652C264.453 317 264.189 316.703 264.189 315.482V311.951H263.287V311.082H264.189V309.564ZM267.258 315.405C267.258 313.964 268.952 313.579 271.251 313.337V313.216C271.251 312.171 270.701 311.819 269.975 311.819C269.183 311.819 268.732 312.226 268.688 312.952H267.533C267.632 311.698 268.666 310.939 270.019 310.939C271.548 310.939 272.428 311.676 272.406 313.447C272.406 313.59 272.384 314.613 272.384 314.866C272.384 315.746 272.439 316.472 272.549 317H271.449C271.405 316.769 271.372 316.593 271.35 316.219C270.998 316.813 270.327 317.143 269.37 317.143C268.171 317.143 267.258 316.483 267.258 315.405ZM271.306 314.184C269.469 314.36 268.501 314.613 268.501 315.383C268.501 315.922 268.93 316.263 269.623 316.263C270.569 316.263 271.306 315.79 271.306 314.613V314.184ZM276.606 310.686C276.606 309.377 276.991 309.025 278.377 309.025H278.894V309.938H278.454C277.871 309.938 277.75 310.059 277.75 310.675V311.082H278.894V311.951H277.75V317H276.606V311.951H275.781V311.082H276.606V310.686ZM281.043 309.025V310.29H279.899V309.025H281.043ZM281.043 311.082V317H279.899V311.082H281.043ZM283.728 317H282.584V309.025H283.728V317ZM289.318 315.262H290.473C290.198 316.241 289.318 317.143 287.811 317.143C285.897 317.143 284.863 315.746 284.863 314.03C284.863 312.193 286.095 310.972 287.778 310.972C289.604 310.972 290.671 312.468 290.55 314.393H286.04C286.15 315.482 286.843 316.164 287.767 316.164C288.592 316.164 289.076 315.823 289.318 315.262ZM286.062 313.491H289.362C289.329 312.611 288.713 311.907 287.767 311.907C286.876 311.907 286.216 312.369 286.062 313.491ZM295.06 312.732C294.895 312.127 294.389 311.885 293.718 311.885C293.157 311.885 292.552 312.116 292.552 312.6C292.552 313.04 292.838 313.227 293.377 313.337L294.224 313.502C295.346 313.722 296.325 314.107 296.325 315.262C296.325 316.461 295.203 317.143 293.839 317.143C292.343 317.143 291.43 316.274 291.287 315.163H292.453C292.607 315.834 293.047 316.23 293.872 316.23C294.609 316.23 295.181 315.922 295.181 315.394C295.181 314.844 294.664 314.624 294.048 314.503L293.157 314.327C292.266 314.151 291.43 313.755 291.43 312.644C291.43 311.599 292.53 310.961 293.828 310.961C295.016 310.961 295.973 311.588 296.193 312.732H295.06Z" fill="#666666"/>
<path d="M417 276.5H464C469.247 276.5 473.5 280.753 473.5 286V301C473.5 306.247 469.247 310.5 464 310.5H417C411.753 310.5 407.5 306.247 407.5 301V286C407.5 280.753 411.753 276.5 417 276.5Z" fill="#F5FBFF"/>
<path d="M417 276.5H464C469.247 276.5 473.5 280.753 473.5 286V301C473.5 306.247 469.247 310.5 464 310.5H417C411.753 310.5 407.5 306.247 407.5 301V286C407.5 280.753 411.753 276.5 417 276.5Z" stroke="#99D8FF"/>
<path d="M422.06 289.025H423.204V297H422.06V296.164C421.697 296.769 421.081 297.143 420.212 297.143C418.837 297.143 417.66 295.988 417.66 294.052C417.66 292.127 418.837 290.972 420.212 290.972C421.081 290.972 421.697 291.346 422.06 291.951V289.025ZM420.476 291.929C419.53 291.929 418.881 292.721 418.881 294.052C418.881 295.383 419.53 296.186 420.476 296.186C421.356 296.186 422.104 295.515 422.104 294.052C422.104 292.589 421.356 291.929 420.476 291.929ZM424.397 295.405C424.397 293.964 426.091 293.579 428.39 293.337V293.216C428.39 292.171 427.84 291.819 427.114 291.819C426.322 291.819 425.871 292.226 425.827 292.952H424.672C424.771 291.698 425.805 290.939 427.158 290.939C428.687 290.939 429.567 291.676 429.545 293.447C429.545 293.59 429.523 294.613 429.523 294.866C429.523 295.746 429.578 296.472 429.688 297H428.588C428.544 296.769 428.511 296.593 428.489 296.219C428.137 296.813 427.466 297.143 426.509 297.143C425.31 297.143 424.397 296.483 424.397 295.405ZM428.445 294.184C426.608 294.36 425.64 294.613 425.64 295.383C425.64 295.922 426.069 296.263 426.762 296.263C427.708 296.263 428.445 295.79 428.445 294.613V294.184ZM431.189 289.564H432.333V291.082H433.499V291.951H432.333V295.328C432.333 295.933 432.432 296.087 433.004 296.087H433.488V297H432.652C431.453 297 431.189 296.703 431.189 295.482V291.951H430.287V291.082H431.189V289.564ZM434.258 295.405C434.258 293.964 435.952 293.579 438.251 293.337V293.216C438.251 292.171 437.701 291.819 436.975 291.819C436.183 291.819 435.732 292.226 435.688 292.952H434.533C434.632 291.698 435.666 290.939 437.019 290.939C438.548 290.939 439.428 291.676 439.406 293.447C439.406 293.59 439.384 294.613 439.384 294.866C439.384 295.746 439.439 296.472 439.549 297H438.449C438.405 296.769 438.372 296.593 438.35 296.219C437.998 296.813 437.327 297.143 436.37 297.143C435.171 297.143 434.258 296.483 434.258 295.405ZM438.306 294.184C436.469 294.36 435.501 294.613 435.501 295.383C435.501 295.922 435.93 296.263 436.623 296.263C437.569 296.263 438.306 295.79 438.306 294.613V294.184ZM443.606 290.686C443.606 289.377 443.991 289.025 445.377 289.025H445.894V289.938H445.454C444.871 289.938 444.75 290.059 444.75 290.675V291.082H445.894V291.951H444.75V297H443.606V291.951H442.781V291.082H443.606V290.686ZM448.043 289.025V290.29H446.899V289.025H448.043ZM448.043 291.082V297H446.899V291.082H448.043ZM450.728 297H449.584V289.025H450.728V297ZM456.318 295.262H457.473C457.198 296.241 456.318 297.143 454.811 297.143C452.897 297.143 451.863 295.746 451.863 294.03C451.863 292.193 453.095 290.972 454.778 290.972C456.604 290.972 457.671 292.468 457.55 294.393H453.04C453.15 295.482 453.843 296.164 454.767 296.164C455.592 296.164 456.076 295.823 456.318 295.262ZM453.062 293.491H456.362C456.329 292.611 455.713 291.907 454.767 291.907C453.876 291.907 453.216 292.369 453.062 293.491ZM462.06 292.732C461.895 292.127 461.389 291.885 460.718 291.885C460.157 291.885 459.552 292.116 459.552 292.6C459.552 293.04 459.838 293.227 460.377 293.337L461.224 293.502C462.346 293.722 463.325 294.107 463.325 295.262C463.325 296.461 462.203 297.143 460.839 297.143C459.343 297.143 458.43 296.274 458.287 295.163H459.453C459.607 295.834 460.047 296.23 460.872 296.23C461.609 296.23 462.181 295.922 462.181 295.394C462.181 294.844 461.664 294.624 461.048 294.503L460.157 294.327C459.266 294.151 458.43 293.755 458.43 292.644C458.43 291.599 459.53 290.961 460.828 290.961C462.016 290.961 462.973 291.588 463.193 292.732H462.06Z" fill="#666666"/>
<path d="M417 286.5H464C469.247 286.5 473.5 290.753 473.5 296V311C473.5 316.247 469.247 320.5 464 320.5H417C411.753 320.5 407.5 316.247 407.5 311V296C407.5 290.753 411.753 286.5 417 286.5Z" fill="#F5FBFF"/>
<path d="M417 286.5H464C469.247 286.5 473.5 290.753 473.5 296V311C473.5 316.247 469.247 320.5 464 320.5H417C411.753 320.5 407.5 316.247 407.5 311V296C407.5 290.753 411.753 286.5 417 286.5Z" stroke="#99D8FF"/>
<path d="M422.06 299.025H423.204V307H422.06V306.164C421.697 306.769 421.081 307.143 420.212 307.143C418.837 307.143 417.66 305.988 417.66 304.052C417.66 302.127 418.837 300.972 420.212 300.972C421.081 300.972 421.697 301.346 422.06 301.951V299.025ZM420.476 301.929C419.53 301.929 418.881 302.721 418.881 304.052C418.881 305.383 419.53 306.186 420.476 306.186C421.356 306.186 422.104 305.515 422.104 304.052C422.104 302.589 421.356 301.929 420.476 301.929ZM424.397 305.405C424.397 303.964 426.091 303.579 428.39 303.337V303.216C428.39 302.171 427.84 301.819 427.114 301.819C426.322 301.819 425.871 302.226 425.827 302.952H424.672C424.771 301.698 425.805 300.939 427.158 300.939C428.687 300.939 429.567 301.676 429.545 303.447C429.545 303.59 429.523 304.613 429.523 304.866C429.523 305.746 429.578 306.472 429.688 307H428.588C428.544 306.769 428.511 306.593 428.489 306.219C428.137 306.813 427.466 307.143 426.509 307.143C425.31 307.143 424.397 306.483 424.397 305.405ZM428.445 304.184C426.608 304.36 425.64 304.613 425.64 305.383C425.64 305.922 426.069 306.263 426.762 306.263C427.708 306.263 428.445 305.79 428.445 304.613V304.184ZM431.189 299.564H432.333V301.082H433.499V301.951H432.333V305.328C432.333 305.933 432.432 306.087 433.004 306.087H433.488V307H432.652C431.453 307 431.189 306.703 431.189 305.482V301.951H430.287V301.082H431.189V299.564ZM434.258 305.405C434.258 303.964 435.952 303.579 438.251 303.337V303.216C438.251 302.171 437.701 301.819 436.975 301.819C436.183 301.819 435.732 302.226 435.688 302.952H434.533C434.632 301.698 435.666 300.939 437.019 300.939C438.548 300.939 439.428 301.676 439.406 303.447C439.406 303.59 439.384 304.613 439.384 304.866C439.384 305.746 439.439 306.472 439.549 307H438.449C438.405 306.769 438.372 306.593 438.35 306.219C437.998 306.813 437.327 307.143 436.37 307.143C435.171 307.143 434.258 306.483 434.258 305.405ZM438.306 304.184C436.469 304.36 435.501 304.613 435.501 305.383C435.501 305.922 435.93 306.263 436.623 306.263C437.569 306.263 438.306 305.79 438.306 304.613V304.184ZM443.606 300.686C443.606 299.377 443.991 299.025 445.377 299.025H445.894V299.938H445.454C444.871 299.938 444.75 300.059 444.75 300.675V301.082H445.894V301.951H444.75V307H443.606V301.951H442.781V301.082H443.606V300.686ZM448.043 299.025V300.29H446.899V299.025H448.043ZM448.043 301.082V307H446.899V301.082H448.043ZM450.728 307H449.584V299.025H450.728V307ZM456.318 305.262H457.473C457.198 306.241 456.318 307.143 454.811 307.143C452.897 307.143 451.863 305.746 451.863 304.03C451.863 302.193 453.095 300.972 454.778 300.972C456.604 300.972 457.671 302.468 457.55 304.393H453.04C453.15 305.482 453.843 306.164 454.767 306.164C455.592 306.164 456.076 305.823 456.318 305.262ZM453.062 303.491H456.362C456.329 302.611 455.713 301.907 454.767 301.907C453.876 301.907 453.216 302.369 453.062 303.491ZM462.06 302.732C461.895 302.127 461.389 301.885 460.718 301.885C460.157 301.885 459.552 302.116 459.552 302.6C459.552 303.04 459.838 303.227 460.377 303.337L461.224 303.502C462.346 303.722 463.325 304.107 463.325 305.262C463.325 306.461 462.203 307.143 460.839 307.143C459.343 307.143 458.43 306.274 458.287 305.163H459.453C459.607 305.834 460.047 306.23 460.872 306.23C461.609 306.23 462.181 305.922 462.181 305.394C462.181 304.844 461.664 304.624 461.048 304.503L460.157 304.327C459.266 304.151 458.43 303.755 458.43 302.644C458.43 301.599 459.53 300.961 460.828 300.961C462.016 300.961 462.973 301.588 463.193 302.732H462.06Z" fill="#666666"/>
<path d="M417 296.5H464C469.247 296.5 473.5 300.753 473.5 306V321C473.5 326.247 469.247 330.5 464 330.5H417C411.753 330.5 407.5 326.247 407.5 321V306C407.5 300.753 411.753 296.5 417 296.5Z" fill="#F5FBFF"/>
<path d="M417 296.5H464C469.247 296.5 473.5 300.753 473.5 306V321C473.5 326.247 469.247 330.5 464 330.5H417C411.753 330.5 407.5 326.247 407.5 321V306C407.5 300.753 411.753 296.5 417 296.5Z" stroke="#99D8FF"/>
<path d="M422.06 309.025H423.204V317H422.06V316.164C421.697 316.769 421.081 317.143 420.212 317.143C418.837 317.143 417.66 315.988 417.66 314.052C417.66 312.127 418.837 310.972 420.212 310.972C421.081 310.972 421.697 311.346 422.06 311.951V309.025ZM420.476 311.929C419.53 311.929 418.881 312.721 418.881 314.052C418.881 315.383 419.53 316.186 420.476 316.186C421.356 316.186 422.104 315.515 422.104 314.052C422.104 312.589 421.356 311.929 420.476 311.929ZM424.397 315.405C424.397 313.964 426.091 313.579 428.39 313.337V313.216C428.39 312.171 427.84 311.819 427.114 311.819C426.322 311.819 425.871 312.226 425.827 312.952H424.672C424.771 311.698 425.805 310.939 427.158 310.939C428.687 310.939 429.567 311.676 429.545 313.447C429.545 313.59 429.523 314.613 429.523 314.866C429.523 315.746 429.578 316.472 429.688 317H428.588C428.544 316.769 428.511 316.593 428.489 316.219C428.137 316.813 427.466 317.143 426.509 317.143C425.31 317.143 424.397 316.483 424.397 315.405ZM428.445 314.184C426.608 314.36 425.64 314.613 425.64 315.383C425.64 315.922 426.069 316.263 426.762 316.263C427.708 316.263 428.445 315.79 428.445 314.613V314.184ZM431.189 309.564H432.333V311.082H433.499V311.951H432.333V315.328C432.333 315.933 432.432 316.087 433.004 316.087H433.488V317H432.652C431.453 317 431.189 316.703 431.189 315.482V311.951H430.287V311.082H431.189V309.564ZM434.258 315.405C434.258 313.964 435.952 313.579 438.251 313.337V313.216C438.251 312.171 437.701 311.819 436.975 311.819C436.183 311.819 435.732 312.226 435.688 312.952H434.533C434.632 311.698 435.666 310.939 437.019 310.939C438.548 310.939 439.428 311.676 439.406 313.447C439.406 313.59 439.384 314.613 439.384 314.866C439.384 315.746 439.439 316.472 439.549 317H438.449C438.405 316.769 438.372 316.593 438.35 316.219C437.998 316.813 437.327 317.143 436.37 317.143C435.171 317.143 434.258 316.483 434.258 315.405ZM438.306 314.184C436.469 314.36 435.501 314.613 435.501 315.383C435.501 315.922 435.93 316.263 436.623 316.263C437.569 316.263 438.306 315.79 438.306 314.613V314.184ZM443.606 310.686C443.606 309.377 443.991 309.025 445.377 309.025H445.894V309.938H445.454C444.871 309.938 444.75 310.059 444.75 310.675V311.082H445.894V311.951H444.75V317H443.606V311.951H442.781V311.082H443.606V310.686ZM448.043 309.025V310.29H446.899V309.025H448.043ZM448.043 311.082V317H446.899V311.082H448.043ZM450.728 317H449.584V309.025H450.728V317ZM456.318 315.262H457.473C457.198 316.241 456.318 317.143 454.811 317.143C452.897 317.143 451.863 315.746 451.863 314.03C451.863 312.193 453.095 310.972 454.778 310.972C456.604 310.972 457.671 312.468 457.55 314.393H453.04C453.15 315.482 453.843 316.164 454.767 316.164C455.592 316.164 456.076 315.823 456.318 315.262ZM453.062 313.491H456.362C456.329 312.611 455.713 311.907 454.767 311.907C453.876 311.907 453.216 312.369 453.062 313.491ZM462.06 312.732C461.895 312.127 461.389 311.885 460.718 311.885C460.157 311.885 459.552 312.116 459.552 312.6C459.552 313.04 459.838 313.227 460.377 313.337L461.224 313.502C462.346 313.722 463.325 314.107 463.325 315.262C463.325 316.461 462.203 317.143 460.839 317.143C459.343 317.143 458.43 316.274 458.287 315.163H459.453C459.607 315.834 460.047 316.23 460.872 316.23C461.609 316.23 462.181 315.922 462.181 315.394C462.181 314.844 461.664 314.624 461.048 314.503L460.157 314.327C459.266 314.151 458.43 313.755 458.43 312.644C458.43 311.599 459.53 310.961 460.828 310.961C462.016 310.961 462.973 311.588 463.193 312.732H462.06Z" fill="#666666"/>
<path d="M574 276.5H621C626.247 276.5 630.5 280.753 630.5 286V301C630.5 306.247 626.247 310.5 621 310.5H574C568.753 310.5 564.5 306.247 564.5 301V286C564.5 280.753 568.753 276.5 574 276.5Z" fill="#F5FBFF"/>
<path d="M574 276.5H621C626.247 276.5 630.5 280.753 630.5 286V301C630.5 306.247 626.247 310.5 621 310.5H574C568.753 310.5 564.5 306.247 564.5 301V286C564.5 280.753 568.753 276.5 574 276.5Z" stroke="#99D8FF"/>
<path d="M579.06 289.025H580.204V297H579.06V296.164C578.697 296.769 578.081 297.143 577.212 297.143C575.837 297.143 574.66 295.988 574.66 294.052C574.66 292.127 575.837 290.972 577.212 290.972C578.081 290.972 578.697 291.346 579.06 291.951V289.025ZM577.476 291.929C576.53 291.929 575.881 292.721 575.881 294.052C575.881 295.383 576.53 296.186 577.476 296.186C578.356 296.186 579.104 295.515 579.104 294.052C579.104 292.589 578.356 291.929 577.476 291.929ZM581.397 295.405C581.397 293.964 583.091 293.579 585.39 293.337V293.216C585.39 292.171 584.84 291.819 584.114 291.819C583.322 291.819 582.871 292.226 582.827 292.952H581.672C581.771 291.698 582.805 290.939 584.158 290.939C585.687 290.939 586.567 291.676 586.545 293.447C586.545 293.59 586.523 294.613 586.523 294.866C586.523 295.746 586.578 296.472 586.688 297H585.588C585.544 296.769 585.511 296.593 585.489 296.219C585.137 296.813 584.466 297.143 583.509 297.143C582.31 297.143 581.397 296.483 581.397 295.405ZM585.445 294.184C583.608 294.36 582.64 294.613 582.64 295.383C582.64 295.922 583.069 296.263 583.762 296.263C584.708 296.263 585.445 295.79 585.445 294.613V294.184ZM588.189 289.564H589.333V291.082H590.499V291.951H589.333V295.328C589.333 295.933 589.432 296.087 590.004 296.087H590.488V297H589.652C588.453 297 588.189 296.703 588.189 295.482V291.951H587.287V291.082H588.189V289.564ZM591.258 295.405C591.258 293.964 592.952 293.579 595.251 293.337V293.216C595.251 292.171 594.701 291.819 593.975 291.819C593.183 291.819 592.732 292.226 592.688 292.952H591.533C591.632 291.698 592.666 290.939 594.019 290.939C595.548 290.939 596.428 291.676 596.406 293.447C596.406 293.59 596.384 294.613 596.384 294.866C596.384 295.746 596.439 296.472 596.549 297H595.449C595.405 296.769 595.372 296.593 595.35 296.219C594.998 296.813 594.327 297.143 593.37 297.143C592.171 297.143 591.258 296.483 591.258 295.405ZM595.306 294.184C593.469 294.36 592.501 294.613 592.501 295.383C592.501 295.922 592.93 296.263 593.623 296.263C594.569 296.263 595.306 295.79 595.306 294.613V294.184ZM600.606 290.686C600.606 289.377 600.991 289.025 602.377 289.025H602.894V289.938H602.454C601.871 289.938 601.75 290.059 601.75 290.675V291.082H602.894V291.951H601.75V297H600.606V291.951H599.781V291.082H600.606V290.686ZM605.043 289.025V290.29H603.899V289.025H605.043ZM605.043 291.082V297H603.899V291.082H605.043ZM607.728 297H606.584V289.025H607.728V297ZM613.318 295.262H614.473C614.198 296.241 613.318 297.143 611.811 297.143C609.897 297.143 608.863 295.746 608.863 294.03C608.863 292.193 610.095 290.972 611.778 290.972C613.604 290.972 614.671 292.468 614.55 294.393H610.04C610.15 295.482 610.843 296.164 611.767 296.164C612.592 296.164 613.076 295.823 613.318 295.262ZM610.062 293.491H613.362C613.329 292.611 612.713 291.907 611.767 291.907C610.876 291.907 610.216 292.369 610.062 293.491ZM619.06 292.732C618.895 292.127 618.389 291.885 617.718 291.885C617.157 291.885 616.552 292.116 616.552 292.6C616.552 293.04 616.838 293.227 617.377 293.337L618.224 293.502C619.346 293.722 620.325 294.107 620.325 295.262C620.325 296.461 619.203 297.143 617.839 297.143C616.343 297.143 615.43 296.274 615.287 295.163H616.453C616.607 295.834 617.047 296.23 617.872 296.23C618.609 296.23 619.181 295.922 619.181 295.394C619.181 294.844 618.664 294.624 618.048 294.503L617.157 294.327C616.266 294.151 615.43 293.755 615.43 292.644C615.43 291.599 616.53 290.961 617.828 290.961C619.016 290.961 619.973 291.588 620.193 292.732H619.06Z" fill="#666666"/>
<path d="M579 286.5H626C631.247 286.5 635.5 290.753 635.5 296V311C635.5 316.247 631.247 320.5 626 320.5H579C573.753 320.5 569.5 316.247 569.5 311V296C569.5 290.753 573.753 286.5 579 286.5Z" fill="#F5FBFF"/>
<path d="M579 286.5H626C631.247 286.5 635.5 290.753 635.5 296V311C635.5 316.247 631.247 320.5 626 320.5H579C573.753 320.5 569.5 316.247 569.5 311V296C569.5 290.753 573.753 286.5 579 286.5Z" stroke="#99D8FF"/>
<path d="M584.06 299.025H585.204V307H584.06V306.164C583.697 306.769 583.081 307.143 582.212 307.143C580.837 307.143 579.66 305.988 579.66 304.052C579.66 302.127 580.837 300.972 582.212 300.972C583.081 300.972 583.697 301.346 584.06 301.951V299.025ZM582.476 301.929C581.53 301.929 580.881 302.721 580.881 304.052C580.881 305.383 581.53 306.186 582.476 306.186C583.356 306.186 584.104 305.515 584.104 304.052C584.104 302.589 583.356 301.929 582.476 301.929ZM586.397 305.405C586.397 303.964 588.091 303.579 590.39 303.337V303.216C590.39 302.171 589.84 301.819 589.114 301.819C588.322 301.819 587.871 302.226 587.827 302.952H586.672C586.771 301.698 587.805 300.939 589.158 300.939C590.687 300.939 591.567 301.676 591.545 303.447C591.545 303.59 591.523 304.613 591.523 304.866C591.523 305.746 591.578 306.472 591.688 307H590.588C590.544 306.769 590.511 306.593 590.489 306.219C590.137 306.813 589.466 307.143 588.509 307.143C587.31 307.143 586.397 306.483 586.397 305.405ZM590.445 304.184C588.608 304.36 587.64 304.613 587.64 305.383C587.64 305.922 588.069 306.263 588.762 306.263C589.708 306.263 590.445 305.79 590.445 304.613V304.184ZM593.189 299.564H594.333V301.082H595.499V301.951H594.333V305.328C594.333 305.933 594.432 306.087 595.004 306.087H595.488V307H594.652C593.453 307 593.189 306.703 593.189 305.482V301.951H592.287V301.082H593.189V299.564ZM596.258 305.405C596.258 303.964 597.952 303.579 600.251 303.337V303.216C600.251 302.171 599.701 301.819 598.975 301.819C598.183 301.819 597.732 302.226 597.688 302.952H596.533C596.632 301.698 597.666 300.939 599.019 300.939C600.548 300.939 601.428 301.676 601.406 303.447C601.406 303.59 601.384 304.613 601.384 304.866C601.384 305.746 601.439 306.472 601.549 307H600.449C600.405 306.769 600.372 306.593 600.35 306.219C599.998 306.813 599.327 307.143 598.37 307.143C597.171 307.143 596.258 306.483 596.258 305.405ZM600.306 304.184C598.469 304.36 597.501 304.613 597.501 305.383C597.501 305.922 597.93 306.263 598.623 306.263C599.569 306.263 600.306 305.79 600.306 304.613V304.184ZM605.606 300.686C605.606 299.377 605.991 299.025 607.377 299.025H607.894V299.938H607.454C606.871 299.938 606.75 300.059 606.75 300.675V301.082H607.894V301.951H606.75V307H605.606V301.951H604.781V301.082H605.606V300.686ZM610.043 299.025V300.29H608.899V299.025H610.043ZM610.043 301.082V307H608.899V301.082H610.043ZM612.728 307H611.584V299.025H612.728V307ZM618.318 305.262H619.473C619.198 306.241 618.318 307.143 616.811 307.143C614.897 307.143 613.863 305.746 613.863 304.03C613.863 302.193 615.095 300.972 616.778 300.972C618.604 300.972 619.671 302.468 619.55 304.393H615.04C615.15 305.482 615.843 306.164 616.767 306.164C617.592 306.164 618.076 305.823 618.318 305.262ZM615.062 303.491H618.362C618.329 302.611 617.713 301.907 616.767 301.907C615.876 301.907 615.216 302.369 615.062 303.491ZM624.06 302.732C623.895 302.127 623.389 301.885 622.718 301.885C622.157 301.885 621.552 302.116 621.552 302.6C621.552 303.04 621.838 303.227 622.377 303.337L623.224 303.502C624.346 303.722 625.325 304.107 625.325 305.262C625.325 306.461 624.203 307.143 622.839 307.143C621.343 307.143 620.43 306.274 620.287 305.163H621.453C621.607 305.834 622.047 306.23 622.872 306.23C623.609 306.23 624.181 305.922 624.181 305.394C624.181 304.844 623.664 304.624 623.048 304.503L622.157 304.327C621.266 304.151 620.43 303.755 620.43 302.644C620.43 301.599 621.53 300.961 622.828 300.961C624.016 300.961 624.973 301.588 625.193 302.732H624.06Z" fill="#666666"/>
<path d="M584 296.5H631C636.247 296.5 640.5 300.753 640.5 306V321C640.5 326.247 636.247 330.5 631 330.5H584C578.753 330.5 574.5 326.247 574.5 321V306C574.5 300.753 578.753 296.5 584 296.5Z" fill="#F5FBFF"/>
<path d="M584 296.5H631C636.247 296.5 640.5 300.753 640.5 306V321C640.5 326.247 636.247 330.5 631 330.5H584C578.753 330.5 574.5 326.247 574.5 321V306C574.5 300.753 578.753 296.5 584 296.5Z" stroke="#99D8FF"/>
<path d="M589.06 309.025H590.204V317H589.06V316.164C588.697 316.769 588.081 317.143 587.212 317.143C585.837 317.143 584.66 315.988 584.66 314.052C584.66 312.127 585.837 310.972 587.212 310.972C588.081 310.972 588.697 311.346 589.06 311.951V309.025ZM587.476 311.929C586.53 311.929 585.881 312.721 585.881 314.052C585.881 315.383 586.53 316.186 587.476 316.186C588.356 316.186 589.104 315.515 589.104 314.052C589.104 312.589 588.356 311.929 587.476 311.929ZM591.397 315.405C591.397 313.964 593.091 313.579 595.39 313.337V313.216C595.39 312.171 594.84 311.819 594.114 311.819C593.322 311.819 592.871 312.226 592.827 312.952H591.672C591.771 311.698 592.805 310.939 594.158 310.939C595.687 310.939 596.567 311.676 596.545 313.447C596.545 313.59 596.523 314.613 596.523 314.866C596.523 315.746 596.578 316.472 596.688 317H595.588C595.544 316.769 595.511 316.593 595.489 316.219C595.137 316.813 594.466 317.143 593.509 317.143C592.31 317.143 591.397 316.483 591.397 315.405ZM595.445 314.184C593.608 314.36 592.64 314.613 592.64 315.383C592.64 315.922 593.069 316.263 593.762 316.263C594.708 316.263 595.445 315.79 595.445 314.613V314.184ZM598.189 309.564H599.333V311.082H600.499V311.951H599.333V315.328C599.333 315.933 599.432 316.087 600.004 316.087H600.488V317H599.652C598.453 317 598.189 316.703 598.189 315.482V311.951H597.287V311.082H598.189V309.564ZM601.258 315.405C601.258 313.964 602.952 313.579 605.251 313.337V313.216C605.251 312.171 604.701 311.819 603.975 311.819C603.183 311.819 602.732 312.226 602.688 312.952H601.533C601.632 311.698 602.666 310.939 604.019 310.939C605.548 310.939 606.428 311.676 606.406 313.447C606.406 313.59 606.384 314.613 606.384 314.866C606.384 315.746 606.439 316.472 606.549 317H605.449C605.405 316.769 605.372 316.593 605.35 316.219C604.998 316.813 604.327 317.143 603.37 317.143C602.171 317.143 601.258 316.483 601.258 315.405ZM605.306 314.184C603.469 314.36 602.501 314.613 602.501 315.383C602.501 315.922 602.93 316.263 603.623 316.263C604.569 316.263 605.306 315.79 605.306 314.613V314.184ZM610.606 310.686C610.606 309.377 610.991 309.025 612.377 309.025H612.894V309.938H612.454C611.871 309.938 611.75 310.059 611.75 310.675V311.082H612.894V311.951H611.75V317H610.606V311.951H609.781V311.082H610.606V310.686ZM615.043 309.025V310.29H613.899V309.025H615.043ZM615.043 311.082V317H613.899V311.082H615.043ZM617.728 317H616.584V309.025H617.728V317ZM623.318 315.262H624.473C624.198 316.241 623.318 317.143 621.811 317.143C619.897 317.143 618.863 315.746 618.863 314.03C618.863 312.193 620.095 310.972 621.778 310.972C623.604 310.972 624.671 312.468 624.55 314.393H620.04C620.15 315.482 620.843 316.164 621.767 316.164C622.592 316.164 623.076 315.823 623.318 315.262ZM620.062 313.491H623.362C623.329 312.611 622.713 311.907 621.767 311.907C620.876 311.907 620.216 312.369 620.062 313.491ZM629.06 312.732C628.895 312.127 628.389 311.885 627.718 311.885C627.157 311.885 626.552 312.116 626.552 312.6C626.552 313.04 626.838 313.227 627.377 313.337L628.224 313.502C629.346 313.722 630.325 314.107 630.325 315.262C630.325 316.461 629.203 317.143 627.839 317.143C626.343 317.143 625.43 316.274 625.287 315.163H626.453C626.607 315.834 627.047 316.23 627.872 316.23C628.609 316.23 629.181 315.922 629.181 315.394C629.181 314.844 628.664 314.624 628.048 314.503L627.157 314.327C626.266 314.151 625.43 313.755 625.43 312.644C625.43 311.599 626.53 310.961 627.828 310.961C629.016 310.961 629.973 311.588 630.193 312.732H629.06Z" fill="#666666"/>
<path d="M428.854 190.354C428.658 190.549 428.342 190.549 428.146 190.354L424.964 187.172C424.769 186.976 424.769 186.66 424.964 186.464C425.16 186.269 425.476 186.269 425.672 186.464L428.5 189.293L431.328 186.464C431.524 186.269 431.84 186.269 432.036 186.464C432.231 186.66 432.231 186.976 432.036 187.172L428.854 190.354ZM306.5 160H307V171.97H306.5H306V160H306.5ZM311.5 176.97V176.47H423.5V176.97V177.47H311.5V176.97ZM428.5 181.97H429V190H428.5H428V181.97H428.5ZM423.5 176.97V176.47C426.538 176.47 429 178.932 429 181.97H428.5H428C428 179.484 425.985 177.47 423.5 177.47V176.97ZM306.5 171.97H307C307 174.455 309.015 176.47 311.5 176.47V176.97V177.47C308.462 177.47 306 175.007 306 171.97H306.5Z" fill="#99D8FF"/>
<path d="M440.146 190.354C440.342 190.549 440.658 190.549 440.854 190.354L444.036 187.172C444.231 186.976 444.231 186.66 444.036 186.464C443.84 186.269 443.524 186.269 443.328 186.464L440.5 189.293L437.672 186.464C437.476 186.269 437.16 186.269 436.964 186.464C436.769 186.66 436.769 186.976 436.964 187.172L440.146 190.354ZM576.5 160H576V171.97H576.5H577V160H576.5ZM571.5 176.97V176.47H445.5V176.97V177.47H571.5V176.97ZM440.5 181.97H440V190H440.5H441V181.97H440.5ZM445.5 176.97V176.47C442.462 176.47 440 178.932 440 181.97H440.5H441C441 179.484 443.015 177.47 445.5 177.47V176.97ZM576.5 171.97H576C576 174.455 573.985 176.47 571.5 176.47V176.97V177.47C574.538 177.47 577 175.007 577 171.97H576.5Z" fill="#99D8FF"/>
<path d="M326.158 190.365C326.36 190.554 326.676 190.543 326.865 190.342L329.94 187.056C330.129 186.855 330.119 186.538 329.917 186.35C329.715 186.161 329.399 186.171 329.21 186.373L326.477 189.293L323.557 186.56C323.355 186.371 323.039 186.382 322.85 186.583C322.661 186.785 322.672 187.101 322.873 187.29L326.158 190.365ZM560.224 162.54L559.727 162.486L560.224 162.54ZM560.5 160L560.003 159.946L559.727 162.486L560.224 162.54L560.722 162.594L560.997 160.054L560.5 160ZM555.254 167V166.5H330.908V167V167.5H555.254V167ZM325.911 172.165L325.411 172.182L326 190.017L326.5 190L327 189.983L326.411 172.149L325.911 172.165ZM330.908 167V166.5C327.799 166.5 325.309 169.075 325.411 172.182L325.911 172.165L326.411 172.149C326.327 169.606 328.365 167.5 330.908 167.5V167ZM560.224 162.54L559.727 162.486C559.479 164.77 557.551 166.5 555.254 166.5V167V167.5C558.061 167.5 560.419 165.385 560.722 162.594L560.224 162.54Z" fill="#99D8FF"/>
<path d="M288.021 125.354C288.217 125.549 288.533 125.549 288.729 125.354L291.911 122.172C292.106 121.976 292.106 121.66 291.911 121.464C291.715 121.269 291.399 121.269 291.203 121.464L288.375 124.293L285.547 121.464C285.351 121.269 285.035 121.269 284.839 121.464C284.644 121.66 284.644 121.976 284.839 122.172L288.021 125.354ZM288.375 85L287.875 85L287.875 125L288.375 125L288.875 125L288.875 85L288.375 85Z" fill="#99D8FF"/>
<path d="M287.646 190.354C287.842 190.549 288.158 190.549 288.354 190.354L291.536 187.172C291.731 186.976 291.731 186.66 291.536 186.464C291.34 186.269 291.024 186.269 290.828 186.464L288 189.293L285.172 186.464C284.976 186.269 284.66 186.269 284.464 186.464C284.269 186.66 284.269 186.976 284.464 187.172L287.646 190.354ZM288 160L287.5 160L287.5 190L288 190L288.5 190L288.5 160L288 160Z" fill="#99D8FF"/>
<path d="M311.646 302.646C311.451 302.842 311.451 303.158 311.646 303.354L314.828 306.536C315.024 306.731 315.34 306.731 315.536 306.536C315.731 306.34 315.731 306.024 315.536 305.828L312.707 303L315.536 300.172C315.731 299.976 315.731 299.66 315.536 299.464C315.34 299.269 315.024 299.269 314.828 299.464L311.646 302.646ZM336.001 275.5L335.501 275.5L336.001 275.5ZM314.001 225L313.501 225L313.501 265.5L314.001 265.5L314.501 265.5L314.501 225L314.001 225ZM319.001 270.5L319.001 271L331.001 271L331.001 270.5L331.001 270L319.001 270L319.001 270.5ZM336.001 275.5L335.501 275.5L335.5 298L336 298L336.5 298L336.501 275.5L336.001 275.5ZM331 303L331 302.5L312 302.5L312 303L312 303.5L331 303.5L331 303ZM336 298L335.5 298C335.5 300.485 333.485 302.5 331 302.5L331 303L331 303.5C334.038 303.5 336.5 301.038 336.5 298L336 298ZM331.001 270.5L331.001 271C333.486 271 335.501 273.015 335.501 275.5L336.001 275.5L336.501 275.5C336.501 272.463 334.038 270 331.001 270L331.001 270.5ZM314.001 265.5L313.501 265.5C313.501 268.538 315.963 271 319.001 271L319.001 270.5L319.001 270C316.515 270 314.501 267.985 314.501 265.5L314.001 265.5Z" fill="#99D8FF"/>
<path d="M240.201 312.646C240.396 312.842 240.396 313.158 240.201 313.354L237.019 316.536C236.824 316.731 236.507 316.731 236.312 316.536C236.117 316.34 236.117 316.024 236.312 315.828L239.14 313L236.312 310.172C236.117 309.976 236.117 309.66 236.312 309.464C236.507 309.269 236.824 309.269 237.019 309.464L240.201 312.646ZM280 263.473L280 262.973L280 263.473ZM285 225L285.5 225L285.5 258.473L285 258.473L284.5 258.473L284.5 225L285 225ZM280 263.473L280 263.973L225 263.973L225 263.473L225 262.973L280 262.973L280 263.473ZM220 268.473L220.5 268.473L220.5 308L220 308L219.5 308L219.5 268.473L220 268.473ZM225 313L225 312.5L239.847 312.5L239.847 313L239.847 313.5L225 313.5L225 313ZM220 308L220.5 308C220.5 310.485 222.515 312.5 225 312.5L225 313L225 313.5C221.962 313.5 219.5 311.038 219.5 308L220 308ZM225 263.473L225 263.973C222.515 263.973 220.5 265.987 220.5 268.473L220 268.473L219.5 268.473C219.5 265.435 221.962 262.973 225 262.973L225 263.473ZM285 258.473L285.5 258.473C285.5 261.51 283.038 263.973 280 263.973L280 263.473L280 262.973C282.485 262.973 284.5 260.958 284.5 258.473L285 258.473Z" fill="#99D8FF"/>
<path d="M298.646 276.854C298.842 277.049 299.158 277.049 299.354 276.854L302.536 273.672C302.731 273.476 302.731 273.16 302.536 272.964C302.34 272.769 302.024 272.769 301.828 272.964L299 275.793L296.172 272.964C295.976 272.769 295.66 272.769 295.464 272.964C295.269 273.16 295.269 273.476 295.464 273.672L298.646 276.854ZM299 225L298.5 225L298.5 276.5L299 276.5L299.5 276.5L299.5 225L299 225Z" fill="#99D8FF"/>
<path d="M569.355 302.646C569.55 302.842 569.55 303.158 569.355 303.354L566.173 306.536C565.978 306.731 565.661 306.731 565.466 306.536C565.271 306.34 565.271 306.024 565.466 305.828L568.294 303L565.466 300.172C565.271 299.976 565.271 299.66 565.466 299.464C565.661 299.269 565.978 299.269 566.173 299.464L569.355 302.646ZM545.001 298L545.501 298L545.001 298ZM545.001 275.5L545.501 275.5L545.001 275.5ZM583.5 225L584 225L584 265.5L583.5 265.5L583 265.5L583 225L583.5 225ZM578.5 270.5L578.5 271L550.001 271L550.001 270.5L550.001 270L578.5 270L578.5 270.5ZM545.001 275.5L545.501 275.5L545.501 298L545.001 298L544.501 298L544.501 275.5L545.001 275.5ZM550.001 303L550.001 302.5L569.001 302.5L569.001 303L569.001 303.5L550.001 303.5L550.001 303ZM545.001 298L545.501 298C545.501 300.485 547.516 302.5 550.001 302.5L550.001 303L550.001 303.5C546.964 303.5 544.501 301.038 544.501 298L545.001 298ZM550.001 270.5L550.001 271C547.515 271 545.501 273.015 545.501 275.5L545.001 275.5L544.501 275.5C544.501 272.463 546.963 270 550.001 270L550.001 270.5ZM583.5 265.5L584 265.5C584 268.538 581.538 271 578.5 271L578.5 270.5L578.5 270C580.985 270 583 267.985 583 265.5L583.5 265.5Z" fill="#99D8FF"/>
<path d="M640.799 312.646C640.604 312.842 640.604 313.158 640.799 313.354L643.981 316.536C644.176 316.731 644.493 316.731 644.688 316.536C644.883 316.34 644.883 316.024 644.688 315.828L641.86 313L644.688 310.172C644.883 309.976 644.883 309.66 644.688 309.464C644.493 309.269 644.176 309.269 643.981 309.464L640.799 312.646ZM617.5 263.473L617.5 262.973L617.5 263.473ZM612.5 225L612 225L612 258.473L612.5 258.473L613 258.473L613 225L612.5 225ZM617.5 263.473L617.5 263.973L656 263.973L656 263.473L656 262.973L617.5 262.973L617.5 263.473ZM661 268.473L660.5 268.473L660.5 308L661 308L661.5 308L661.5 268.473L661 268.473ZM656 313L656 312.5L641.153 312.5L641.153 313L641.153 313.5L656 313.5L656 313ZM661 308L660.5 308C660.5 310.485 658.485 312.5 656 312.5L656 313L656 313.5C659.038 313.5 661.5 311.038 661.5 308L661 308ZM656 263.473L656 263.973C658.485 263.973 660.5 265.987 660.5 268.473L661 268.473L661.5 268.473C661.5 265.435 659.038 262.973 656 262.973L656 263.473ZM612.5 258.473L612 258.473C612 261.51 614.462 263.973 617.5 263.973L617.5 263.473L617.5 262.973C615.015 262.973 613 260.958 613 258.473L612.5 258.473Z" fill="#99D8FF"/>
<path d="M598.354 276.854C598.158 277.049 597.842 277.049 597.646 276.854L594.464 273.672C594.269 273.476 594.269 273.16 594.464 272.964C594.66 272.769 594.976 272.769 595.172 272.964L598 275.793L600.828 272.964C601.024 272.769 601.34 272.769 601.536 272.964C601.731 273.16 601.731 273.476 601.536 273.672L598.354 276.854ZM598 225L598.5 225L598.5 276.5L598 276.5L597.5 276.5L597.5 225L598 225Z" fill="#99D8FF"/>
<path d="M594.146 190.354C594.342 190.549 594.658 190.549 594.854 190.354L598.036 187.172C598.231 186.976 598.231 186.66 598.036 186.464C597.84 186.269 597.524 186.269 597.328 186.464L594.5 189.293L591.672 186.464C591.476 186.269 591.16 186.269 590.964 186.464C590.769 186.66 590.769 186.976 590.964 187.172L594.146 190.354ZM594.5 160L594 160L594 190L594.5 190L595 190L595 160L594.5 160Z" fill="#99D8FF"/>
<path d="M306.146 125.354C306.342 125.549 306.658 125.549 306.854 125.354L310.036 122.172C310.231 121.976 310.231 121.66 310.036 121.464C309.84 121.269 309.524 121.269 309.328 121.464L306.5 124.293L303.672 121.464C303.476 121.269 303.16 121.269 302.964 121.464C302.769 121.66 302.769 121.976 302.964 122.172L306.146 125.354ZM558.005 105.779L558.005 105.279L558.005 105.779ZM563 85H562.5V100.779H563H563.5V85H563ZM558.005 105.779L558.005 105.279L311.494 105.547L311.495 106.047L311.495 106.547L558.006 106.279L558.005 105.779ZM306.5 111.047H306V125H306.5H307V111.047H306.5ZM311.495 106.047L311.494 105.547C308.459 105.55 306 108.012 306 111.047H306.5H307C307 108.564 309.012 106.55 311.495 106.547L311.495 106.047ZM563 100.779H562.5C562.5 103.262 560.488 105.276 558.005 105.279L558.005 105.779L558.006 106.279C561.041 106.275 563.5 103.814 563.5 100.779H563Z" fill="#99D8FF"/>
<path d="M577.146 125.354C577.342 125.549 577.658 125.549 577.854 125.354L581.036 122.172C581.231 121.976 581.231 121.66 581.036 121.464C580.84 121.269 580.524 121.269 580.328 121.464L577.5 124.293L574.672 121.464C574.476 121.269 574.16 121.269 573.964 121.464C573.769 121.66 573.769 121.976 573.964 122.172L577.146 125.354ZM603.5 85H603V105.4H603.5H604V85H603.5ZM598.5 110.4V109.9H582.5V110.4V110.9H598.5V110.4ZM577.5 115.4H577V125H577.5H578V115.4H577.5ZM582.5 110.4V109.9C579.462 109.9 577 112.363 577 115.4H577.5H578C578 112.915 580.015 110.9 582.5 110.9V110.4ZM603.5 105.4H603C603 107.885 600.985 109.9 598.5 109.9V110.4V110.9C601.538 110.9 604 108.438 604 105.4H603.5Z" fill="#99D8FF"/>
<path d="M473.146 301.146C472.951 301.342 472.951 301.658 473.146 301.854L476.328 305.036C476.524 305.231 476.84 305.231 477.036 305.036C477.231 304.84 477.231 304.524 477.036 304.328L474.207 301.5L477.036 298.672C477.231 298.476 477.231 298.16 477.036 297.964C476.84 297.769 476.524 297.769 476.328 297.964L473.146 301.146ZM486.5 270.5L486.5 270L486.5 270.5ZM491.5 275.5L491 275.5L491.5 275.5ZM466 270.5L466 271L466 270.5ZM461 225L460.5 225L460.5 265.5L461 265.5L461.5 265.5L461.5 225L461 225ZM466 270.5L466 271L486.5 271L486.5 270.5L486.5 270L466 270L466 270.5ZM491.5 275.5L491 275.5L491 296.5L491.5 296.5L492 296.5L492 275.5L491.5 275.5ZM486.5 301.5L486.5 301L473.5 301L473.5 301.5L473.5 302L486.5 302L486.5 301.5ZM491.5 296.5L491 296.5C490.999 298.985 488.985 301 486.5 301L486.5 301.5L486.5 302C489.537 302 491.999 299.538 492 296.5L491.5 296.5ZM486.5 270.5L486.5 271C488.985 271 491 273.015 491 275.5L491.5 275.5L492 275.5C492 272.463 489.538 270 486.5 270L486.5 270.5ZM461 265.5L460.5 265.5C460.5 268.538 462.962 271 466 271L466 270.5L466 270C463.515 270 461.5 267.985 461.5 265.5L461 265.5Z" fill="#99D8FF"/>
<path d="M406.854 312.646C407.049 312.842 407.049 313.158 406.854 313.354L403.672 316.536C403.476 316.731 403.16 316.731 402.964 316.536C402.769 316.34 402.769 316.024 402.964 315.828L405.793 313L402.964 310.172C402.769 309.976 402.769 309.66 402.964 309.464C403.16 309.269 403.476 309.269 403.672 309.464L406.854 312.646ZM393 263.473L393 262.973L393 263.473ZM432 225L432.5 225L432.5 258.473L432 258.473L431.5 258.473L431.5 225L432 225ZM427 263.473L427 263.973L393 263.973L393 263.473L393 262.973L427 262.973L427 263.473ZM388 268.473L388.5 268.473L388.5 308L388 308L387.5 308L387.5 268.473L388 268.473ZM393 313L393 312.5L406.5 312.5L406.5 313L406.5 313.5L393 313.5L393 313ZM388 308L388.5 308C388.5 310.485 390.515 312.5 393 312.5L393 313L393 313.5C389.962 313.5 387.5 311.038 387.5 308L388 308ZM393 263.473L393 263.973C390.515 263.973 388.5 265.987 388.5 268.473L388 268.473L387.5 268.473C387.5 265.435 389.962 262.973 393 262.973L393 263.473ZM432 258.473L432.5 258.473C432.5 261.51 430.038 263.973 427 263.973L427 263.473L427 262.973C429.485 262.973 431.5 260.958 431.5 258.473L432 258.473Z" fill="#99D8FF"/>
<path d="M445.646 276.854C445.842 277.049 446.158 277.049 446.354 276.854L449.536 273.672C449.731 273.476 449.731 273.16 449.536 272.964C449.34 272.769 449.024 272.769 448.828 272.964L446 275.793L443.172 272.964C442.976 272.769 442.66 272.769 442.464 272.964C442.269 273.16 442.269 273.476 442.464 273.672L445.646 276.854ZM446 225L445.5 225L445.5 276.5L446 276.5L446.5 276.5L446.5 225L446 225Z" fill="#99D8FF"/>
</g>
<defs>
<clipPath id="clip0_6338_1920">
<rect width="750" height="351" fill="white"/>
</clipPath>
</defs>
</svg>
